<svg width="16" height="14" viewBox="0 0 16 14" fill="none" xmlns="http://www.w3.org/2000/svg">
<rect width="16" height="14" rx="1.71" fill="#EAF8F0"/>
<path d="M9.088 5.716L7.372 7.436L6.712 6.776C6.67614 6.73413 6.63201 6.70012 6.58239 6.67611C6.53276 6.6521 6.47871 6.63861 6.42362 6.63648C6.36854 6.63435 6.3136 6.64363 6.26227 6.66374C6.21094 6.68385 6.16432 6.71436 6.12534 6.75334C6.08636 6.79232 6.05586 6.83894 6.03575 6.89027C6.01564 6.9416 6.00635 6.99653 6.00848 7.05162C6.01061 7.10671 6.0241 7.16076 6.04811 7.21039C6.07212 7.26001 6.10613 7.30414 6.148 7.34L7.088 8.284C7.12538 8.32107 7.1697 8.3504 7.21844 8.37031C7.26717 8.39021 7.31936 8.4003 7.372 8.4C7.47694 8.39956 7.5775 8.3579 7.652 8.284L9.652 6.284C9.68949 6.24681 9.71925 6.20257 9.73956 6.15383C9.75987 6.10509 9.77032 6.0528 9.77032 6C9.77032 5.94719 9.75987 5.89491 9.73956 5.84617C9.71925 5.79742 9.68949 5.75318 9.652 5.716C9.57706 5.6415 9.47568 5.59968 9.37 5.59968C9.26433 5.59968 9.16295 5.6415 9.088 5.716ZM8 3C7.20888 3 6.43552 3.2346 5.77772 3.67412C5.11992 4.11365 4.60723 4.73836 4.30448 5.46927C4.00173 6.20017 3.92252 7.00444 4.07686 7.78036C4.2312 8.55628 4.61216 9.26902 5.17157 9.82843C5.73098 10.3878 6.44372 10.7688 7.21964 10.9231C7.99556 11.0775 8.79983 10.9983 9.53073 10.6955C10.2616 10.3928 10.8864 9.88008 11.3259 9.22228C11.7654 8.56448 12 7.79112 12 7C12 6.47471 11.8965 5.95457 11.6955 5.46927C11.4945 4.98396 11.1999 4.54301 10.8284 4.17157C10.457 3.80014 10.016 3.5055 9.53073 3.30448C9.04543 3.10346 8.52529 3 8 3ZM8 10.2C7.3671 10.2 6.74841 10.0123 6.22218 9.6607C5.69594 9.30908 5.28579 8.80931 5.04359 8.22459C4.80139 7.63986 4.73802 6.99645 4.86149 6.37571C4.98496 5.75497 5.28973 5.18479 5.73726 4.73726C6.18479 4.28973 6.75497 3.98496 7.37571 3.86149C7.99645 3.73801 8.63986 3.80138 9.22459 4.04359C9.80931 4.28579 10.3091 4.69594 10.6607 5.22217C11.0123 5.74841 11.2 6.3671 11.2 7C11.2 7.84869 10.8629 8.66262 10.2627 9.26274C9.66263 9.86286 8.84869 10.2 8 10.2Z" fill="url(#paint0_linear_37_1415)"/>
<defs>
<linearGradient id="paint0_linear_37_1415" x1="8" y1="3" x2="8" y2="11" gradientUnits="userSpaceOnUse">
<stop stop-color="#30ADB5"/>
<stop offset="1" stop-color="#39DB49"/>
</linearGradient>
</defs>
</svg>
