<svg width="40" height="40" viewBox="0 0 40 40" fill="none" xmlns="http://www.w3.org/2000/svg">
<rect width="40" height="40" fill="#1E1E1E"/>
<g clip-path="url(#clip0_0_1)">
<rect width="360" height="1614" transform="translate(-12 -1565)" fill="#F3F4F5"/>
<path d="M348 49.5H348.5V49V4C348.5 -2.90356 342.904 -8.5 336 -8.5H9.53674e-07C-6.90356 -8.5 -12.5 -2.90356 -12.5 4V49V49.5H-12H348Z" fill="white"/>
<g clip-path="url(#clip1_0_1)">
<path d="M31.128 0H8.872C3.97213 0 0 3.97213 0 8.872V31.128C0 36.0279 3.97213 40 8.872 40H31.128C36.0279 40 40 36.0279 40 31.128V8.872C40 3.97213 36.0279 0 31.128 0Z" fill="url(#paint0_linear_0_1)"/>
<path d="M29.7682 19.5547C29.3309 19.808 28.9176 20.04 28.5149 20.2907C28.4509 20.3307 28.4216 20.464 28.4216 20.5547C28.4162 21.792 28.4082 23.0294 28.4216 24.2667C28.4322 25.4587 27.9282 26.3307 26.8829 26.9174C25.5789 27.648 24.2936 28.4134 22.9949 29.1547C20.9896 30.296 18.9842 30.2854 16.9842 29.1414C15.6882 28.3974 14.3976 27.64 13.0962 26.9067C12.0642 26.3227 11.5709 25.4507 11.5816 24.2694C11.5922 23.048 11.5816 21.8294 11.5896 20.608C11.5896 20.4107 11.5362 20.3014 11.3602 20.2C10.4429 19.68 9.53357 19.1467 8.62423 18.6134C7.59757 18.0107 7.59223 16.792 8.6189 16.1947C11.9362 14.264 15.2536 12.336 18.5736 10.4107C19.5122 9.8667 20.4696 9.85337 21.4082 10.3974C24.7442 12.328 28.0776 14.264 31.4082 16.2054C32.3976 16.784 32.4029 17.9574 31.4402 18.5947C31.3656 18.6454 31.2962 18.7654 31.2962 18.856C31.2882 21.0374 31.2882 23.216 31.2962 25.3974C31.2962 25.4934 31.3522 25.6107 31.4216 25.68C31.9949 26.232 32.0189 27.08 31.4696 27.6267C30.9496 28.144 30.0909 28.1307 29.5816 27.6C29.0562 27.0507 29.0962 26.208 29.6642 25.672C29.7282 25.6107 29.7869 25.5014 29.7869 25.416C29.7949 23.504 29.7922 21.592 29.7922 19.68C29.7922 19.6534 29.7869 19.6294 29.7762 19.56L29.7682 19.5547ZM13.0749 21.2054C13.0749 21.3494 13.0749 21.4347 13.0749 21.5174C13.0749 22.4427 13.0856 23.368 13.0722 24.296C13.0642 24.8934 13.3069 25.312 13.8269 25.6054C15.1362 26.344 16.4376 27.0987 17.7389 27.8534C19.2402 28.7227 20.7389 28.7307 22.2429 27.864C23.5602 27.1067 24.8749 26.3387 26.1976 25.5867C26.7042 25.3014 26.9309 24.888 26.9256 24.3147C26.9149 23.3814 26.9256 22.4454 26.9256 21.512C26.9256 21.4294 26.9256 21.3467 26.9256 21.216C26.7949 21.288 26.7069 21.336 26.6216 21.3867C24.9016 22.384 23.1842 23.384 21.4642 24.3814C20.4882 24.9467 19.5122 24.944 18.5362 24.376C17.5362 23.7947 16.5336 23.2134 15.5309 22.632C14.7336 22.168 13.9336 21.704 13.0776 21.208L13.0749 21.2054Z" fill="white"/>
<path d="M26.9284 21.648C26.9337 22.2213 26.7044 22.6347 26.2004 22.92C24.8777 23.6693 23.563 24.4373 22.2457 25.1973C20.7417 26.0613 19.243 26.0533 17.7417 25.1867C16.4404 24.432 15.139 23.6773 13.8297 22.9387C13.307 22.6453 13.0644 22.2267 13.075 21.6293C13.075 21.576 13.075 21.52 13.075 21.4667L11.5817 20.6987C11.5817 21 11.5817 21.3013 11.5817 21.6027C11.571 22.784 12.0644 23.656 13.0964 24.24C14.3977 24.976 15.6884 25.7333 16.9844 26.4747C18.9844 27.6213 20.9924 27.632 22.995 26.488C24.2937 25.7467 25.579 24.984 26.883 24.2507C27.9284 23.664 28.4324 22.792 28.4217 21.6C28.4377 21.4293 28.443 21.0347 28.443 20.5173L26.9257 21.464C26.9257 21.5227 26.9257 21.584 26.9257 21.6427L26.9284 21.648Z" fill="white"/>
</g>
<path d="M348 49.5H348.5V49V4C348.5 -2.90356 342.904 -8.5 336 -8.5H9.53674e-07C-6.90356 -8.5 -12.5 -2.90356 -12.5 4V49V49.5H-12H348Z" stroke="#E8ECEF"/>
</g>
<rect x="-365" y="-1688" width="2569" height="1830" rx="113" stroke="#00A69C" stroke-width="16"/>
<defs>
<linearGradient id="paint0_linear_0_1" x1="2.6" y1="37.4" x2="37.4" y2="2.6" gradientUnits="userSpaceOnUse">
<stop stop-color="#007CA0"/>
<stop offset="1" stop-color="#003F6B"/>
</linearGradient>
<clipPath id="clip0_0_1">
<rect width="360" height="1614" fill="white" transform="translate(-12 -1565)"/>
</clipPath>
<clipPath id="clip1_0_1">
<rect width="40" height="40" fill="white"/>
</clipPath>
</defs>
</svg>
