<svg width="362" height="59" viewBox="0 0 362 59" fill="none" xmlns="http://www.w3.org/2000/svg">
<path d="M361 58.5H361.5V58V13C361.5 6.09644 355.904 0.5 349 0.5H13C6.09644 0.5 0.5 6.09644 0.5 13V58V58.5H1H361Z" fill="white"/>
<path d="M13 19C13 13.4772 17.4772 9 23 9H43C48.5229 9 53 13.4772 53 19V39C53 44.5229 48.5229 49 43 49H23C17.4772 49 13 44.5229 13 39V19Z" fill="#00B8AD"/>
<path opacity="0.7" fill-rule="evenodd" clip-rule="evenodd" d="M30.0463 21.3814C30.0463 19.4791 28.6354 17.9187 26.8086 17.666C27.0017 17.666 27.1947 17.666 27.373 17.6809C28.3235 17.6809 29.274 17.7552 30.2096 17.9038C30.2096 17.9038 30.2096 17.9038 30.2096 17.9038C30.2095 17.9037 30.2094 17.9035 30.2092 17.9034C31.6201 18.1263 32.9716 18.5275 34.2934 19.0774C36.4024 19.9691 38.3034 21.2472 39.9371 22.882C41.5708 24.5167 42.848 26.419 43.7391 28.5293C44.3013 29.832 44.6866 31.1789 44.9098 32.5701L44.9278 32.5864C45.0763 33.5227 45.1506 34.4738 45.1506 35.4398V35.4399C45.1506 35.6777 45.1506 35.9154 45.1357 36.1532C44.9724 34.2212 43.3535 32.7202 41.3931 32.7202H37.2792C37.1469 32.2053 36.9709 31.7195 36.7513 31.2341H36.744C36.239 30.1046 35.5261 29.0792 34.635 28.1875C33.7291 27.2809 32.6746 26.5676 31.5459 26.0623V26.0477C31.0559 25.8248 30.5659 25.6466 30.0463 25.5129V21.3814ZM30.239 17.9332C30.239 17.9332 30.239 17.9331 30.2389 17.9331C30.2389 17.9331 30.2389 17.9331 30.2389 17.9331C30.2389 17.9331 30.239 17.9332 30.239 17.9332Z" fill="white"/>
<path d="M45.1343 36.1541C44.971 34.237 43.3521 32.7211 41.3917 32.7211H37.2778H31.3074C30.6094 32.7211 30.0599 32.1564 30.0599 31.4727V25.5281V21.3967C30.0599 19.4944 28.649 17.9339 26.8222 17.6813C26.644 17.6516 26.4658 17.6367 26.3024 17.6367C25.9311 17.6367 25.5747 17.6962 25.2331 17.7853C23.6736 18.246 22.5449 19.6876 22.5449 21.3967V26.3752V36.481C22.5449 38.5616 24.2232 40.241 26.3024 40.241H36.4609H41.3917C43.1591 40.241 44.6591 39.0075 45.0452 37.3579C45.1046 37.0755 45.1492 36.7931 45.1492 36.4959C45.1492 36.377 45.1343 36.2581 45.1343 36.1541Z" fill="white"/>
<path d="M72.096 25.112C71.8507 25.112 71.6587 25.0427 71.52 24.904C71.3813 24.7653 71.312 24.568 71.312 24.312V14.44C71.312 14.1733 71.376 13.9707 71.504 13.832C71.6427 13.6827 71.824 13.608 72.048 13.608C72.24 13.608 72.384 13.6453 72.48 13.72C72.5867 13.784 72.7093 13.9067 72.848 14.088L79.44 22.776H79.04V14.392C79.04 14.1467 79.104 13.9547 79.232 13.816C79.3707 13.6773 79.5627 13.608 79.808 13.608C80.064 13.608 80.256 13.6773 80.384 13.816C80.512 13.9547 80.576 14.1467 80.576 14.392V24.328C80.576 24.5733 80.512 24.7653 80.384 24.904C80.2667 25.0427 80.1067 25.112 79.904 25.112C79.712 25.112 79.552 25.0747 79.424 25C79.3067 24.9253 79.1787 24.7973 79.04 24.616L72.48 15.944H72.848V24.312C72.848 24.568 72.784 24.7653 72.656 24.904C72.528 25.0427 72.3413 25.112 72.096 25.112ZM86.4186 25.144C85.6293 25.144 84.9466 24.9787 84.3706 24.648C83.8053 24.3173 83.3626 23.848 83.0426 23.24C82.7226 22.632 82.5626 21.9173 82.5626 21.096C82.5626 20.4667 82.6533 19.9067 82.8346 19.416C83.016 18.9253 83.272 18.504 83.6026 18.152C83.944 17.7893 84.3493 17.5173 84.8186 17.336C85.2986 17.144 85.832 17.048 86.4186 17.048C87.1973 17.048 87.8693 17.2133 88.4346 17.544C89.0106 17.8747 89.4586 18.344 89.7786 18.952C90.0986 19.5493 90.2586 20.264 90.2586 21.096C90.2586 21.7147 90.168 22.2747 89.9866 22.776C89.8053 23.2773 89.544 23.704 89.2026 24.056C88.872 24.408 88.4666 24.68 87.9866 24.872C87.5173 25.0533 86.9946 25.144 86.4186 25.144ZM86.4186 23.896C86.856 23.896 87.24 23.7893 87.5706 23.576C87.9013 23.3627 88.1573 23.048 88.3386 22.632C88.5306 22.216 88.6266 21.704 88.6266 21.096C88.6266 20.1787 88.424 19.4853 88.0186 19.016C87.6133 18.5467 87.08 18.312 86.4186 18.312C85.9706 18.312 85.5813 18.4187 85.2506 18.632C84.92 18.8347 84.6586 19.144 84.4666 19.56C84.2853 19.976 84.1946 20.488 84.1946 21.096C84.1946 22.0027 84.3973 22.696 84.8026 23.176C85.208 23.656 85.7466 23.896 86.4186 23.896ZM92.9055 25.112C92.6495 25.112 92.4522 25.0427 92.3135 24.904C92.1748 24.7547 92.1055 24.552 92.1055 24.296V17.896C92.1055 17.6293 92.1748 17.4267 92.3135 17.288C92.4522 17.1493 92.6442 17.08 92.8895 17.08C93.1455 17.08 93.3375 17.1493 93.4655 17.288C93.6042 17.4267 93.6735 17.6293 93.6735 17.896V19.208L93.4975 18.856C93.7108 18.2907 94.0415 17.848 94.4895 17.528C94.9375 17.208 95.4762 17.048 96.1055 17.048C96.7562 17.048 97.2842 17.2027 97.6895 17.512C98.0948 17.8213 98.3722 18.296 98.5215 18.936H98.2975C98.5002 18.3493 98.8468 17.8907 99.3375 17.56C99.8282 17.2187 100.399 17.048 101.05 17.048C101.647 17.048 102.138 17.1653 102.522 17.4C102.906 17.624 103.194 17.9707 103.386 18.44C103.578 18.8987 103.674 19.48 103.674 20.184V24.296C103.674 24.552 103.599 24.7547 103.45 24.904C103.311 25.0427 103.114 25.112 102.858 25.112C102.602 25.112 102.404 25.0427 102.266 24.904C102.127 24.7547 102.058 24.552 102.058 24.296V20.264C102.058 19.6027 101.94 19.1173 101.706 18.808C101.482 18.4987 101.108 18.344 100.586 18.344C99.9988 18.344 99.5348 18.5467 99.1935 18.952C98.8522 19.3573 98.6815 19.9173 98.6815 20.632V24.296C98.6815 24.552 98.6122 24.7547 98.4735 24.904C98.3348 25.0427 98.1375 25.112 97.8815 25.112C97.6255 25.112 97.4228 25.0427 97.2735 24.904C97.1348 24.7547 97.0655 24.552 97.0655 24.296V20.264C97.0655 19.6027 96.9535 19.1173 96.7295 18.808C96.5055 18.4987 96.1322 18.344 95.6095 18.344C95.0228 18.344 94.5588 18.5467 94.2175 18.952C93.8868 19.3573 93.7215 19.9173 93.7215 20.632V24.296C93.7215 24.84 93.4495 25.112 92.9055 25.112ZM109.597 25.144C108.744 25.144 108.008 24.984 107.389 24.664C106.781 24.3333 106.306 23.8693 105.965 23.272C105.634 22.664 105.469 21.944 105.469 21.112C105.469 20.3013 105.634 19.592 105.965 18.984C106.296 18.376 106.749 17.9013 107.325 17.56C107.901 17.2187 108.557 17.048 109.293 17.048C109.837 17.048 110.322 17.1387 110.749 17.32C111.176 17.4907 111.538 17.7467 111.837 18.088C112.146 18.4187 112.376 18.824 112.525 19.304C112.685 19.784 112.765 20.3227 112.765 20.92C112.765 21.1013 112.712 21.24 112.605 21.336C112.498 21.4213 112.338 21.464 112.125 21.464H106.749V20.472H111.677L111.405 20.696C111.405 20.1627 111.325 19.7093 111.165 19.336C111.016 18.9627 110.786 18.68 110.477 18.488C110.178 18.2853 109.805 18.184 109.357 18.184C108.856 18.184 108.429 18.3013 108.077 18.536C107.736 18.7707 107.474 19.096 107.293 19.512C107.112 19.928 107.021 20.4133 107.021 20.968V21.064C107.021 22.0027 107.24 22.712 107.677 23.192C108.125 23.6613 108.77 23.896 109.613 23.896C109.933 23.896 110.269 23.8533 110.621 23.768C110.984 23.6827 111.325 23.5387 111.645 23.336C111.826 23.2293 111.986 23.1813 112.125 23.192C112.274 23.2027 112.392 23.2507 112.477 23.336C112.573 23.4213 112.632 23.528 112.653 23.656C112.674 23.784 112.653 23.9173 112.589 24.056C112.525 24.184 112.413 24.3013 112.253 24.408C111.89 24.6533 111.469 24.84 110.989 24.968C110.509 25.0853 110.045 25.144 109.597 25.144ZM122.505 25.112C122.239 25.112 122.031 25.0373 121.881 24.888C121.743 24.7387 121.673 24.5307 121.673 24.264V15.112H118.281C118.057 15.112 117.881 15.0533 117.753 14.936C117.625 14.808 117.561 14.632 117.561 14.408C117.561 14.184 117.625 14.0133 117.753 13.896C117.881 13.7787 118.057 13.72 118.281 13.72H126.713C126.948 13.72 127.129 13.7787 127.257 13.896C127.385 14.0133 127.449 14.184 127.449 14.408C127.449 14.632 127.385 14.808 127.257 14.936C127.129 15.0533 126.948 15.112 126.713 15.112H123.321V24.264C123.321 24.5307 123.252 24.7387 123.113 24.888C122.985 25.0373 122.783 25.112 122.505 25.112ZM129.599 25C129.311 25 129.087 24.9253 128.927 24.776C128.777 24.616 128.703 24.392 128.703 24.104V14.616C128.703 14.328 128.777 14.1093 128.927 13.96C129.087 13.8 129.311 13.72 129.599 13.72H133.407C134.185 13.72 134.847 13.8373 135.391 14.072C135.945 14.3067 136.367 14.6427 136.655 15.08C136.953 15.5173 137.103 16.0453 137.103 16.664C137.103 17.3467 136.9 17.9227 136.495 18.392C136.089 18.8613 135.54 19.176 134.847 19.336V19.096C135.636 19.2027 136.255 19.5013 136.703 19.992C137.151 20.472 137.375 21.1013 137.375 21.88C137.375 22.8827 137.044 23.656 136.383 24.2C135.721 24.7333 134.793 25 133.599 25H129.599ZM130.303 23.72H133.407C134.207 23.72 134.799 23.5653 135.183 23.256C135.567 22.936 135.759 22.456 135.759 21.816C135.759 21.176 135.567 20.7013 135.183 20.392C134.799 20.0827 134.207 19.928 133.407 19.928H130.303V23.72ZM130.303 18.648H133.151C133.919 18.648 134.5 18.4933 134.895 18.184C135.289 17.8747 135.487 17.4213 135.487 16.824C135.487 16.2267 135.289 15.7733 134.895 15.464C134.5 15.1547 133.919 15 133.151 15H130.303V18.648ZM140.505 25C140.217 25 139.993 24.9253 139.833 24.776C139.684 24.616 139.609 24.392 139.609 24.104V14.616C139.609 14.328 139.684 14.1093 139.833 13.96C139.993 13.8 140.217 13.72 140.505 13.72H143.593C145.449 13.72 146.878 14.2053 147.881 15.176C148.894 16.136 149.401 17.528 149.401 19.352C149.401 20.2587 149.273 21.064 149.017 21.768C148.761 22.472 148.382 23.064 147.881 23.544C147.39 24.0133 146.788 24.376 146.073 24.632C145.358 24.8773 144.532 25 143.593 25H140.505ZM141.273 23.608H143.497C144.201 23.608 144.809 23.5227 145.321 23.352C145.844 23.1707 146.281 22.904 146.633 22.552C146.985 22.2 147.246 21.7573 147.417 21.224C147.588 20.6907 147.673 20.0667 147.673 19.352C147.673 17.9333 147.321 16.872 146.617 16.168C145.924 15.464 144.884 15.112 143.497 15.112H141.273V23.608Z" fill="#434E5B"/>
<path d="M71.548 44C71.388 44 71.264 43.956 71.176 43.868C71.088 43.772 71.044 43.644 71.044 43.484V35.996C71.044 35.828 71.084 35.7 71.164 35.612C71.252 35.524 71.376 35.48 71.536 35.48C71.696 35.48 71.816 35.524 71.896 35.612C71.984 35.7 72.028 35.828 72.028 35.996V43.136H75.964C76.108 43.136 76.22 43.176 76.3 43.256C76.38 43.328 76.42 43.432 76.42 43.568C76.42 43.704 76.38 43.812 76.3 43.892C76.22 43.964 76.108 44 75.964 44H71.548ZM79.2636 44.108C78.8636 44.108 78.5036 44.032 78.1836 43.88C77.8716 43.72 77.6236 43.504 77.4396 43.232C77.2556 42.96 77.1636 42.656 77.1636 42.32C77.1636 41.888 77.2716 41.548 77.4876 41.3C77.7116 41.052 78.0756 40.876 78.5796 40.772C79.0916 40.668 79.7876 40.616 80.6676 40.616H81.2076V41.252H80.6796C80.0316 41.252 79.5196 41.284 79.1436 41.348C78.7756 41.404 78.5156 41.504 78.3636 41.648C78.2196 41.792 78.1476 41.996 78.1476 42.26C78.1476 42.588 78.2596 42.856 78.4836 43.064C78.7156 43.272 79.0276 43.376 79.4196 43.376C79.7396 43.376 80.0196 43.3 80.2596 43.148C80.5076 42.996 80.6996 42.788 80.8356 42.524C80.9796 42.26 81.0516 41.956 81.0516 41.612V40.244C81.0516 39.748 80.9516 39.392 80.7516 39.176C80.5516 38.952 80.2236 38.84 79.7676 38.84C79.4876 38.84 79.2076 38.876 78.9276 38.948C78.6476 39.02 78.3516 39.136 78.0396 39.296C77.9276 39.352 77.8316 39.372 77.7516 39.356C77.6716 39.332 77.6076 39.288 77.5596 39.224C77.5116 39.16 77.4836 39.088 77.4756 39.008C77.4676 38.92 77.4836 38.836 77.5236 38.756C77.5716 38.676 77.6436 38.612 77.7396 38.564C78.0916 38.388 78.4396 38.26 78.7836 38.18C79.1276 38.1 79.4556 38.06 79.7676 38.06C80.2716 38.06 80.6876 38.144 81.0156 38.312C81.3436 38.472 81.5876 38.72 81.7476 39.056C81.9076 39.384 81.9876 39.808 81.9876 40.328V43.58C81.9876 43.74 81.9476 43.864 81.8676 43.952C81.7956 44.04 81.6876 44.084 81.5436 44.084C81.3916 44.084 81.2756 44.04 81.1956 43.952C81.1156 43.864 81.0756 43.74 81.0756 43.58V42.644H81.1836C81.1196 42.948 80.9956 43.208 80.8116 43.424C80.6356 43.64 80.4156 43.808 80.1516 43.928C79.8876 44.048 79.5916 44.108 79.2636 44.108ZM85.0283 46.244C84.9083 46.244 84.8123 46.212 84.7403 46.148C84.6683 46.084 84.6243 45.996 84.6083 45.884C84.6003 45.78 84.6203 45.672 84.6683 45.56L85.4963 43.7V44.12L83.1923 38.768C83.1443 38.648 83.1283 38.536 83.1443 38.432C83.1603 38.328 83.2083 38.244 83.2883 38.18C83.3683 38.116 83.4803 38.084 83.6243 38.084C83.7523 38.084 83.8523 38.112 83.9243 38.168C83.9963 38.224 84.0603 38.324 84.1163 38.468L86.0843 43.292H85.7603L87.7523 38.468C87.8163 38.324 87.8843 38.224 87.9563 38.168C88.0283 38.112 88.1323 38.084 88.2683 38.084C88.3963 38.084 88.4923 38.116 88.5563 38.18C88.6283 38.244 88.6683 38.328 88.6763 38.432C88.6923 38.528 88.6763 38.636 88.6283 38.756L85.5563 45.86C85.4923 46.004 85.4203 46.104 85.3403 46.16C85.2683 46.216 85.1643 46.244 85.0283 46.244ZM92.4423 44.108C91.8263 44.108 91.2943 43.988 90.8463 43.748C90.4063 43.5 90.0623 43.152 89.8143 42.704C89.5743 42.256 89.4543 41.72 89.4543 41.096C89.4543 40.488 89.5743 39.96 89.8143 39.512C90.0543 39.056 90.3823 38.7 90.7983 38.444C91.2223 38.188 91.7103 38.06 92.2623 38.06C92.6543 38.06 93.0063 38.128 93.3183 38.264C93.6303 38.392 93.8943 38.58 94.1103 38.828C94.3343 39.076 94.5023 39.376 94.6143 39.728C94.7343 40.08 94.7943 40.476 94.7943 40.916C94.7943 41.044 94.7583 41.14 94.6863 41.204C94.6143 41.26 94.5103 41.288 94.3743 41.288H90.1983V40.652H94.1463L93.9543 40.808C93.9543 40.376 93.8903 40.012 93.7623 39.716C93.6343 39.412 93.4463 39.18 93.1983 39.02C92.9583 38.86 92.6543 38.78 92.2863 38.78C91.8783 38.78 91.5303 38.876 91.2423 39.068C90.9623 39.252 90.7503 39.512 90.6063 39.848C90.4623 40.176 90.3903 40.56 90.3903 41V41.072C90.3903 41.808 90.5663 42.368 90.9183 42.752C91.2783 43.136 91.7863 43.328 92.4423 43.328C92.7143 43.328 92.9823 43.292 93.2463 43.22C93.5183 43.148 93.7823 43.028 94.0383 42.86C94.1503 42.788 94.2503 42.756 94.3383 42.764C94.4343 42.764 94.5103 42.792 94.5663 42.848C94.6223 42.896 94.6583 42.96 94.6743 43.04C94.6983 43.112 94.6903 43.192 94.6503 43.28C94.6183 43.368 94.5503 43.444 94.4463 43.508C94.1823 43.7 93.8703 43.848 93.5103 43.952C93.1503 44.056 92.7943 44.108 92.4423 44.108ZM96.6931 44.084C96.5331 44.084 96.4091 44.04 96.3211 43.952C96.2411 43.864 96.2011 43.74 96.2011 43.58V38.576C96.2011 38.416 96.2411 38.296 96.3211 38.216C96.4011 38.128 96.5171 38.084 96.6691 38.084C96.8211 38.084 96.9371 38.128 97.0171 38.216C97.1051 38.296 97.1491 38.416 97.1491 38.576V39.548H97.0291C97.1571 39.076 97.4011 38.712 97.7611 38.456C98.1211 38.2 98.5651 38.064 99.0931 38.048C99.2131 38.04 99.3091 38.068 99.3811 38.132C99.4531 38.188 99.4931 38.288 99.5011 38.432C99.5091 38.568 99.4771 38.676 99.4051 38.756C99.3331 38.836 99.2211 38.884 99.0691 38.9L98.8771 38.924C98.3331 38.972 97.9131 39.148 97.6171 39.452C97.3291 39.748 97.1851 40.156 97.1851 40.676V43.58C97.1851 43.74 97.1411 43.864 97.0531 43.952C96.9731 44.04 96.8531 44.084 96.6931 44.084ZM102.411 44.108C102.051 44.108 101.687 44.064 101.319 43.976C100.959 43.888 100.623 43.736 100.311 43.52C100.231 43.464 100.175 43.4 100.143 43.328C100.111 43.248 100.099 43.172 100.107 43.1C100.123 43.02 100.155 42.952 100.203 42.896C100.259 42.84 100.323 42.808 100.395 42.8C100.475 42.784 100.563 42.8 100.659 42.848C100.971 43.04 101.271 43.176 101.559 43.256C101.855 43.328 102.147 43.364 102.435 43.364C102.891 43.364 103.235 43.28 103.467 43.112C103.699 42.944 103.815 42.716 103.815 42.428C103.815 42.204 103.739 42.028 103.587 41.9C103.435 41.764 103.195 41.66 102.867 41.588L101.775 41.348C101.271 41.244 100.895 41.064 100.647 40.808C100.407 40.552 100.287 40.22 100.287 39.812C100.287 39.452 100.379 39.144 100.563 38.888C100.755 38.624 101.023 38.42 101.367 38.276C101.711 38.132 102.111 38.06 102.567 38.06C102.919 38.06 103.251 38.108 103.563 38.204C103.883 38.292 104.171 38.436 104.427 38.636C104.507 38.692 104.559 38.76 104.583 38.84C104.615 38.912 104.619 38.988 104.595 39.068C104.579 39.14 104.543 39.204 104.487 39.26C104.431 39.308 104.363 39.336 104.283 39.344C104.203 39.352 104.119 39.328 104.031 39.272C103.791 39.112 103.547 38.996 103.299 38.924C103.051 38.844 102.807 38.804 102.567 38.804C102.119 38.804 101.779 38.892 101.547 39.068C101.315 39.244 101.199 39.476 101.199 39.764C101.199 39.988 101.271 40.172 101.415 40.316C101.559 40.46 101.783 40.564 102.087 40.628L103.179 40.856C103.699 40.968 104.087 41.148 104.343 41.396C104.607 41.636 104.739 41.964 104.739 42.38C104.739 42.908 104.527 43.328 104.103 43.64C103.679 43.952 103.115 44.108 102.411 44.108ZM109.986 44C109.81 44 109.674 43.956 109.578 43.868C109.49 43.772 109.446 43.636 109.446 43.46V36.08C109.446 35.904 109.49 35.772 109.578 35.684C109.674 35.588 109.81 35.54 109.986 35.54H114.45C114.586 35.54 114.69 35.576 114.762 35.648C114.834 35.72 114.87 35.82 114.87 35.948C114.87 36.084 114.834 36.188 114.762 36.26C114.69 36.332 114.586 36.368 114.45 36.368H110.406V39.296H114.198C114.334 39.296 114.438 39.332 114.51 39.404C114.582 39.468 114.618 39.568 114.618 39.704C114.618 39.84 114.582 39.944 114.51 40.016C114.438 40.088 114.334 40.124 114.198 40.124H110.406V43.172H114.45C114.586 43.172 114.69 43.208 114.762 43.28C114.834 43.352 114.87 43.452 114.87 43.58C114.87 43.716 114.834 43.82 114.762 43.892C114.69 43.964 114.586 44 114.45 44H109.986ZM118.484 44.108C117.964 44.108 117.508 43.984 117.116 43.736C116.732 43.488 116.432 43.14 116.216 42.692C116.008 42.236 115.904 41.7 115.904 41.084C115.904 40.46 116.008 39.924 116.216 39.476C116.432 39.02 116.732 38.672 117.116 38.432C117.508 38.184 117.964 38.06 118.484 38.06C119.012 38.06 119.464 38.192 119.84 38.456C120.216 38.72 120.468 39.076 120.596 39.524H120.464V35.948C120.464 35.788 120.504 35.668 120.584 35.588C120.672 35.5 120.796 35.456 120.956 35.456C121.108 35.456 121.224 35.5 121.304 35.588C121.392 35.668 121.436 35.788 121.436 35.948V43.58C121.436 43.74 121.396 43.864 121.316 43.952C121.236 44.04 121.116 44.084 120.956 44.084C120.804 44.084 120.684 44.04 120.596 43.952C120.516 43.864 120.476 43.74 120.476 43.58V42.44L120.608 42.608C120.48 43.064 120.224 43.428 119.84 43.7C119.464 43.972 119.012 44.108 118.484 44.108ZM118.688 43.328C119.048 43.328 119.364 43.24 119.636 43.064C119.908 42.888 120.116 42.632 120.26 42.296C120.412 41.96 120.488 41.556 120.488 41.084C120.488 40.356 120.324 39.8 119.996 39.416C119.676 39.032 119.24 38.84 118.688 38.84C118.32 38.84 118 38.928 117.728 39.104C117.464 39.272 117.256 39.524 117.104 39.86C116.96 40.188 116.888 40.596 116.888 41.084C116.888 41.804 117.052 42.36 117.38 42.752C117.708 43.136 118.144 43.328 118.688 43.328ZM125.324 44.108C124.852 44.108 124.46 44.024 124.148 43.856C123.844 43.68 123.612 43.42 123.452 43.076C123.3 42.732 123.224 42.304 123.224 41.792V38.576C123.224 38.408 123.264 38.284 123.344 38.204C123.432 38.124 123.552 38.084 123.704 38.084C123.864 38.084 123.984 38.124 124.064 38.204C124.152 38.284 124.196 38.408 124.196 38.576V41.78C124.196 42.292 124.3 42.676 124.508 42.932C124.724 43.18 125.06 43.304 125.516 43.304C126.012 43.304 126.416 43.136 126.728 42.8C127.04 42.464 127.196 42.024 127.196 41.48V38.576C127.196 38.408 127.236 38.284 127.316 38.204C127.404 38.124 127.528 38.084 127.688 38.084C127.84 38.084 127.956 38.124 128.036 38.204C128.124 38.284 128.168 38.408 128.168 38.576V43.58C128.168 43.916 128.012 44.084 127.7 44.084C127.548 44.084 127.428 44.04 127.34 43.952C127.26 43.864 127.22 43.74 127.22 43.58V42.488L127.376 42.656C127.216 43.128 126.952 43.488 126.584 43.736C126.224 43.984 125.804 44.108 125.324 44.108ZM132.458 44.108C131.874 44.108 131.37 43.98 130.946 43.724C130.522 43.468 130.194 43.112 129.962 42.656C129.738 42.192 129.626 41.656 129.626 41.048C129.626 40.584 129.69 40.168 129.818 39.8C129.946 39.432 130.134 39.12 130.382 38.864C130.63 38.6 130.926 38.4 131.27 38.264C131.622 38.128 132.018 38.06 132.458 38.06C132.746 38.06 133.046 38.104 133.358 38.192C133.67 38.28 133.954 38.432 134.21 38.648C134.29 38.704 134.342 38.772 134.366 38.852C134.39 38.932 134.39 39.012 134.366 39.092C134.342 39.164 134.302 39.228 134.246 39.284C134.19 39.332 134.118 39.36 134.03 39.368C133.95 39.376 133.866 39.348 133.778 39.284C133.57 39.124 133.358 39.012 133.142 38.948C132.926 38.884 132.718 38.852 132.518 38.852C132.206 38.852 131.934 38.904 131.702 39.008C131.47 39.104 131.274 39.244 131.114 39.428C130.954 39.612 130.83 39.84 130.742 40.112C130.662 40.384 130.622 40.7 130.622 41.06C130.622 41.756 130.786 42.308 131.114 42.716C131.442 43.116 131.91 43.316 132.518 43.316C132.718 43.316 132.922 43.284 133.13 43.22C133.346 43.156 133.562 43.044 133.778 42.884C133.866 42.82 133.95 42.792 134.03 42.8C134.11 42.808 134.178 42.84 134.234 42.896C134.29 42.944 134.326 43.008 134.342 43.088C134.366 43.168 134.366 43.248 134.342 43.328C134.318 43.4 134.266 43.464 134.186 43.52C133.93 43.728 133.65 43.88 133.346 43.976C133.042 44.064 132.746 44.108 132.458 44.108ZM137.33 44.108C136.93 44.108 136.57 44.032 136.25 43.88C135.938 43.72 135.69 43.504 135.506 43.232C135.322 42.96 135.23 42.656 135.23 42.32C135.23 41.888 135.338 41.548 135.554 41.3C135.778 41.052 136.142 40.876 136.646 40.772C137.158 40.668 137.854 40.616 138.734 40.616H139.274V41.252H138.746C138.098 41.252 137.586 41.284 137.21 41.348C136.842 41.404 136.582 41.504 136.43 41.648C136.286 41.792 136.214 41.996 136.214 42.26C136.214 42.588 136.326 42.856 136.55 43.064C136.782 43.272 137.094 43.376 137.486 43.376C137.806 43.376 138.086 43.3 138.326 43.148C138.574 42.996 138.766 42.788 138.902 42.524C139.046 42.26 139.118 41.956 139.118 41.612V40.244C139.118 39.748 139.018 39.392 138.818 39.176C138.618 38.952 138.29 38.84 137.834 38.84C137.554 38.84 137.274 38.876 136.994 38.948C136.714 39.02 136.418 39.136 136.106 39.296C135.994 39.352 135.898 39.372 135.818 39.356C135.738 39.332 135.674 39.288 135.626 39.224C135.578 39.16 135.55 39.088 135.542 39.008C135.534 38.92 135.55 38.836 135.59 38.756C135.638 38.676 135.71 38.612 135.806 38.564C136.158 38.388 136.506 38.26 136.85 38.18C137.194 38.1 137.522 38.06 137.834 38.06C138.338 38.06 138.754 38.144 139.082 38.312C139.41 38.472 139.654 38.72 139.814 39.056C139.974 39.384 140.054 39.808 140.054 40.328V43.58C140.054 43.74 140.014 43.864 139.934 43.952C139.862 44.04 139.754 44.084 139.61 44.084C139.458 44.084 139.342 44.04 139.262 43.952C139.182 43.864 139.142 43.74 139.142 43.58V42.644H139.25C139.186 42.948 139.062 43.208 138.878 43.424C138.702 43.64 138.482 43.808 138.218 43.928C137.954 44.048 137.658 44.108 137.33 44.108ZM144.197 44.108C143.741 44.108 143.357 44.028 143.045 43.868C142.741 43.7 142.513 43.46 142.361 43.148C142.209 42.828 142.133 42.44 142.133 41.984V38.924H141.329C141.193 38.924 141.089 38.892 141.017 38.828C140.945 38.756 140.909 38.66 140.909 38.54C140.909 38.42 140.945 38.328 141.017 38.264C141.089 38.2 141.193 38.168 141.329 38.168H142.133V36.788C142.133 36.628 142.177 36.508 142.265 36.428C142.353 36.34 142.473 36.296 142.625 36.296C142.777 36.296 142.893 36.34 142.973 36.428C143.061 36.508 143.105 36.628 143.105 36.788V38.168H144.617C144.753 38.168 144.857 38.2 144.929 38.264C145.001 38.328 145.037 38.42 145.037 38.54C145.037 38.66 145.001 38.756 144.929 38.828C144.857 38.892 144.753 38.924 144.617 38.924H143.105V41.888C143.105 42.344 143.201 42.692 143.393 42.932C143.585 43.164 143.897 43.28 144.329 43.28C144.481 43.28 144.609 43.264 144.713 43.232C144.825 43.2 144.917 43.184 144.989 43.184C145.061 43.176 145.121 43.2 145.169 43.256C145.217 43.312 145.241 43.408 145.241 43.544C145.241 43.64 145.221 43.728 145.181 43.808C145.149 43.888 145.089 43.944 145.001 43.976C144.905 44.008 144.777 44.036 144.617 44.06C144.465 44.092 144.325 44.108 144.197 44.108ZM146.603 44.06C146.443 44.06 146.323 44.016 146.243 43.928C146.163 43.832 146.123 43.7 146.123 43.532V38.624C146.123 38.456 146.163 38.328 146.243 38.24C146.323 38.152 146.443 38.108 146.603 38.108C146.755 38.108 146.875 38.152 146.963 38.24C147.051 38.328 147.095 38.456 147.095 38.624V43.532C147.095 43.7 147.051 43.832 146.963 43.928C146.883 44.016 146.763 44.06 146.603 44.06ZM146.603 36.764C146.403 36.764 146.247 36.712 146.135 36.608C146.023 36.496 145.967 36.348 145.967 36.164C145.967 35.972 146.023 35.828 146.135 35.732C146.247 35.628 146.403 35.576 146.603 35.576C146.811 35.576 146.967 35.628 147.071 35.732C147.183 35.828 147.239 35.972 147.239 36.164C147.239 36.348 147.183 36.496 147.071 36.608C146.967 36.712 146.811 36.764 146.603 36.764ZM151.336 44.108C150.768 44.108 150.276 43.984 149.86 43.736C149.444 43.488 149.12 43.14 148.888 42.692C148.664 42.236 148.552 41.7 148.552 41.084C148.552 40.62 148.616 40.204 148.744 39.836C148.872 39.46 149.06 39.14 149.308 38.876C149.556 38.612 149.848 38.412 150.184 38.276C150.528 38.132 150.912 38.06 151.336 38.06C151.904 38.06 152.396 38.184 152.812 38.432C153.228 38.68 153.548 39.032 153.772 39.488C154.004 39.936 154.12 40.468 154.12 41.084C154.12 41.548 154.056 41.964 153.928 42.332C153.8 42.7 153.612 43.02 153.364 43.292C153.116 43.556 152.82 43.76 152.476 43.904C152.14 44.04 151.76 44.108 151.336 44.108ZM151.336 43.328C151.696 43.328 152.012 43.24 152.284 43.064C152.556 42.888 152.764 42.632 152.908 42.296C153.06 41.96 153.136 41.556 153.136 41.084C153.136 40.356 152.972 39.8 152.644 39.416C152.324 39.032 151.888 38.84 151.336 38.84C150.968 38.84 150.648 38.928 150.376 39.104C150.112 39.272 149.904 39.524 149.752 39.86C149.608 40.188 149.536 40.596 149.536 41.084C149.536 41.804 149.7 42.36 150.028 42.752C150.356 43.136 150.792 43.328 151.336 43.328ZM156.06 44.084C155.9 44.084 155.78 44.04 155.7 43.952C155.62 43.864 155.58 43.74 155.58 43.58V38.576C155.58 38.416 155.62 38.296 155.7 38.216C155.78 38.128 155.896 38.084 156.048 38.084C156.2 38.084 156.316 38.128 156.396 38.216C156.484 38.296 156.528 38.416 156.528 38.576V39.608L156.396 39.464C156.564 39 156.836 38.652 157.212 38.42C157.596 38.18 158.036 38.06 158.532 38.06C158.996 38.06 159.38 38.144 159.684 38.312C159.996 38.48 160.228 38.736 160.38 39.08C160.532 39.416 160.608 39.844 160.608 40.364V43.58C160.608 43.74 160.564 43.864 160.476 43.952C160.396 44.04 160.28 44.084 160.128 44.084C159.968 44.084 159.844 44.04 159.756 43.952C159.676 43.864 159.636 43.74 159.636 43.58V40.424C159.636 39.88 159.528 39.484 159.312 39.236C159.104 38.98 158.768 38.852 158.304 38.852C157.768 38.852 157.34 39.02 157.02 39.356C156.708 39.684 156.552 40.124 156.552 40.676V43.58C156.552 43.916 156.388 44.084 156.06 44.084Z" fill="#748494"/>
<circle cx="329" cy="29" r="20" fill="#00B8AD" fill-opacity="0.08"/>
<path d="M335.337 21.644C335.565 21.739 335.772 21.8783 335.946 22.0538C336.122 22.2279 336.261 22.4349 336.356 22.6631C336.451 22.8913 336.5 23.136 336.5 23.3831C336.5 23.6303 336.451 23.875 336.356 24.1032C336.261 24.3313 336.122 24.5384 335.946 24.7125L331.64 29L335.946 33.2875C336.122 33.4616 336.261 33.6687 336.356 33.8968C336.451 34.125 336.5 34.3697 336.5 34.6169C336.5 34.864 336.451 35.1087 336.356 35.3369C336.261 35.5651 336.122 35.7721 335.946 35.9462C335.772 36.1217 335.565 36.261 335.337 36.356C335.109 36.4511 334.864 36.5 334.617 36.5C334.37 36.5 334.125 36.4511 333.897 36.356C333.669 36.261 333.462 36.1217 333.288 35.9462L329 31.6399L324.712 35.9462C324.538 36.1217 324.331 36.261 324.103 36.356C323.875 36.4511 323.63 36.5 323.383 36.5C323.136 36.5 322.891 36.4511 322.663 36.356C322.435 36.261 322.228 36.1217 322.054 35.9462C321.878 35.7721 321.739 35.5651 321.644 35.3369C321.549 35.1087 321.5 34.864 321.5 34.6169C321.5 34.3697 321.549 34.125 321.644 33.8968C321.739 33.6687 321.878 33.4616 322.054 33.2875L326.36 29L322.054 24.7125C321.701 24.3599 321.503 23.8817 321.503 23.3831C321.503 22.8845 321.701 22.4064 322.054 22.0538C322.406 21.7013 322.885 21.5032 323.383 21.5032C323.882 21.5032 324.36 21.7013 324.712 22.0538L329 26.3601L333.288 22.0538C333.462 21.8783 333.669 21.739 333.897 21.644C334.125 21.5489 334.37 21.5 334.617 21.5C334.864 21.5 335.109 21.5489 335.337 21.644Z" fill="#00B8AD"/>
<path d="M361 58.5H361.5V58V13C361.5 6.09644 355.904 0.5 349 0.5H13C6.09644 0.5 0.5 6.09644 0.5 13V58V58.5H1H361Z" stroke="#E8ECEF"/>
</svg>
