<svg width="16" height="14" viewBox="0 0 16 14" fill="none" xmlns="http://www.w3.org/2000/svg">
<rect width="16" height="14" rx="1.71429" fill="#E6F1FE"/>
<path d="M11.9866 6.02617C11.9614 5.94966 11.9155 5.88245 11.8545 5.8327C11.7935 5.78295 11.7201 5.7528 11.643 5.7459L9.37014 5.39869L8.35153 3.23598C8.31882 3.16525 8.26775 3.10561 8.20417 3.06387C8.14058 3.02214 8.06706 3 7.99202 3C7.91698 3 7.84346 3.02214 7.77987 3.06387C7.71629 3.10561 7.66522 3.16525 7.63251 3.23598L6.61389 5.39451L4.34099 5.7459C4.26706 5.7569 4.19755 5.78939 4.14036 5.83967C4.08317 5.88995 4.04058 5.95601 4.01743 6.03036C3.99624 6.10301 3.99433 6.18033 4.01193 6.25403C4.02952 6.32773 4.06595 6.39502 4.11729 6.44868L5.76705 8.12196L5.36759 10.498C5.35333 10.5764 5.3608 10.6575 5.38911 10.7316C5.41742 10.8057 5.4654 10.8698 5.52737 10.9163C5.58778 10.9616 5.65902 10.9883 5.73311 10.9934C5.8072 10.9986 5.8812 10.982 5.9468 10.9456L7.99202 9.8287L10.0292 10.9498C10.0853 10.9829 10.1486 11.0002 10.213 11C10.2976 11.0003 10.3801 10.9725 10.4487 10.9205C10.5106 10.874 10.5586 10.8099 10.5869 10.7358C10.6153 10.6617 10.6227 10.5806 10.6085 10.5022L10.209 8.12614L11.8588 6.45286C11.9164 6.40169 11.9591 6.33443 11.9817 6.2589C12.0043 6.18338 12.006 6.10267 11.9866 6.02617ZM9.52993 7.69945C9.48308 7.7469 9.44803 7.80564 9.42784 7.87053C9.40765 7.93543 9.40292 8.00451 9.41408 8.07176L9.70169 9.82452L8.19974 8.98788C8.14194 8.95565 8.07747 8.9388 8.01199 8.9388C7.94651 8.9388 7.88204 8.95565 7.82425 8.98788L6.32229 9.82452L6.6099 8.07176C6.62106 8.00451 6.61634 7.93543 6.59614 7.87053C6.57595 7.80564 6.5409 7.7469 6.49406 7.69945L5.29569 6.44449L6.9774 6.18932C7.04211 6.17989 7.10363 6.15399 7.15656 6.11387C7.20948 6.07376 7.25221 6.02067 7.28099 5.95924L7.99202 4.36544L8.743 5.96342C8.77177 6.02485 8.8145 6.07795 8.86743 6.11806C8.92036 6.15817 8.98187 6.18407 9.04658 6.1935L10.7283 6.44868L9.52993 7.69945Z" fill="url(#paint0_linear_37_1450)"/>
<defs>
<linearGradient id="paint0_linear_37_1450" x1="8" y1="3" x2="8" y2="11" gradientUnits="userSpaceOnUse">
<stop stop-color="#0EC0D8"/>
<stop offset="1" stop-color="#2F43F5"/>
</linearGradient>
</defs>
</svg>
