<svg width="16" height="14" viewBox="0 0 16 14" fill="none" xmlns="http://www.w3.org/2000/svg">
<rect width="16" height="14" rx="1.71" fill="#EEEEFB"/>
<path d="M11.6631 3.07515C11.3768 3.02632 11.0868 3.00118 10.7963 3C9.80495 2.9992 8.83429 3.28067 8 3.81086C7.16357 3.28763 6.19306 3.01307 5.20371 3.01978C4.91315 3.02096 4.6232 3.0461 4.33686 3.09493C4.24307 3.11094 4.15813 3.15959 4.09734 3.2321C4.03656 3.30462 4.00392 3.39624 4.0053 3.49047V8.23698C4.00444 8.2951 4.01654 8.35269 4.04071 8.40566C4.06489 8.45863 4.10056 8.50566 4.14518 8.54343C4.18981 8.58119 4.24229 8.60876 4.29889 8.62416C4.3555 8.63956 4.41483 8.64241 4.47268 8.63253C5.04513 8.53439 5.63162 8.55067 6.19762 8.68042C6.76361 8.81017 7.29766 9.05076 7.76831 9.38801L7.81624 9.4157H7.86019C7.90449 9.43398 7.95201 9.44339 8 9.44339C8.04799 9.44339 8.09551 9.43398 8.13982 9.4157H8.18376L8.23169 9.38801C8.69906 9.04322 9.23157 8.79483 9.79767 8.65759C10.3638 8.52034 10.9519 8.49702 11.5273 8.58902C11.5852 8.5989 11.6445 8.59605 11.7011 8.58065C11.7577 8.56525 11.8102 8.53768 11.8548 8.49992C11.8994 8.46215 11.9351 8.41512 11.9593 8.36215C11.9835 8.30918 11.9956 8.25159 11.9947 8.19347V3.44696C11.9905 3.35684 11.9554 3.27083 11.8951 3.20321C11.8348 3.13558 11.7529 3.0904 11.6631 3.07515ZM7.60053 8.33191C6.86146 7.94693 6.03881 7.746 5.20371 7.74651C5.07189 7.74651 4.94006 7.74651 4.80424 7.74651V3.79109C4.93729 3.78349 5.07066 3.78349 5.20371 3.79109C6.05593 3.79015 6.88956 4.03778 7.60053 4.50306V8.33191ZM11.1958 7.76233C11.0599 7.76233 10.9281 7.76233 10.7963 7.76233C9.96119 7.76182 9.13854 7.96275 8.39947 8.34774V4.50306C9.11044 4.03778 9.94407 3.79015 10.7963 3.79109C10.9293 3.78349 11.0627 3.78349 11.1958 3.79109V7.76233ZM11.6631 9.40383C11.3768 9.355 11.0868 9.32986 10.7963 9.32868C9.80495 9.32788 8.83429 9.60935 8 10.1395C7.16571 9.60935 6.19505 9.32788 5.20371 9.32868C4.91315 9.32986 4.6232 9.355 4.33686 9.40383C4.28486 9.41201 4.235 9.43027 4.19016 9.45759C4.14532 9.48491 4.10637 9.52073 4.07555 9.563C4.04474 9.60528 4.02267 9.65316 4.01061 9.70391C3.99856 9.75466 3.99675 9.80727 4.0053 9.85871C4.0256 9.96143 4.08619 10.052 4.17379 10.1106C4.2614 10.1691 4.36887 10.1909 4.47268 10.1712C5.04513 10.073 5.63162 10.0893 6.19762 10.2191C6.76361 10.3488 7.29766 10.5894 7.76831 10.9267C7.83596 10.9744 7.91695 11 8 11C8.08305 11 8.16404 10.9744 8.23169 10.9267C8.70234 10.5894 9.23639 10.3488 9.80238 10.2191C10.3684 10.0893 10.9549 10.073 11.5273 10.1712C11.6311 10.1909 11.7386 10.1691 11.8262 10.1106C11.9138 10.052 11.9744 9.96143 11.9947 9.85871C12.0032 9.80727 12.0014 9.75466 11.9894 9.70391C11.9773 9.65316 11.9553 9.60528 11.9244 9.563C11.8936 9.52073 11.8547 9.48491 11.8098 9.45759C11.765 9.43027 11.7151 9.41201 11.6631 9.40383Z" fill="url(#paint0_linear_37_1424)"/>
<defs>
<linearGradient id="paint0_linear_37_1424" x1="8" y1="3" x2="8" y2="11" gradientUnits="userSpaceOnUse">
<stop stop-color="#5451D6"/>
<stop offset="0.958226" stop-color="#439DF0"/>
</linearGradient>
</defs>
</svg>
