<svg width="360" height="640" viewBox="0 0 360 640" fill="none" xmlns="http://www.w3.org/2000/svg">
<g clip-path="url(#clip0_226_985)">
<rect width="360" height="640" fill="white"/>
<path d="M190.853 568.303C190.766 568.078 190.635 567.873 190.468 567.698L181.302 558.532C181.131 558.361 180.928 558.225 180.704 558.133C180.481 558.04 180.242 557.993 180 557.993C179.512 557.993 179.044 558.186 178.698 558.532C178.527 558.703 178.392 558.906 178.299 559.129C178.207 559.352 178.159 559.592 178.159 559.833C178.159 560.322 178.353 560.79 178.698 561.135L184.748 567.167H170.833C170.347 567.167 169.881 567.36 169.537 567.704C169.193 568.048 169 568.514 169 569C169 569.486 169.193 569.953 169.537 570.296C169.881 570.64 170.347 570.833 170.833 570.833H184.748L178.698 576.865C178.526 577.035 178.39 577.238 178.297 577.462C178.204 577.685 178.156 577.925 178.156 578.167C178.156 578.409 178.204 578.648 178.297 578.872C178.39 579.095 178.526 579.298 178.698 579.468C178.869 579.64 179.072 579.777 179.295 579.87C179.518 579.963 179.758 580.011 180 580.011C180.242 580.011 180.482 579.963 180.705 579.87C180.928 579.777 181.131 579.64 181.302 579.468L190.468 570.302C190.635 570.127 190.766 569.922 190.853 569.697C191.037 569.25 191.037 568.75 190.853 568.303Z" fill="#00B8AD"/>
<g opacity="0.2">
<path d="M357.519 310.788C349.587 315.739 342.09 320.272 334.787 325.171C333.626 325.952 333.094 328.558 333.094 330.329C332.997 354.508 332.852 378.687 333.094 402.866C333.287 426.159 324.146 443.199 305.186 454.663C281.534 468.941 258.221 483.897 234.666 498.383C198.294 520.686 161.922 520.478 125.646 498.123C102.14 483.584 78.7298 468.785 55.1266 454.455C36.4084 443.043 27.4604 426.003 27.6539 402.918C27.8474 379.052 27.6539 355.238 27.799 331.372C27.799 327.515 26.8317 325.379 23.6394 323.399C7.00105 313.237 -9.4922 302.816 -25.9855 292.394C-44.6069 280.617 -44.7036 256.803 -26.0822 245.13C34.0868 207.403 94.2558 169.727 154.473 132.104C171.498 121.474 188.862 121.213 205.888 131.844C266.395 169.571 326.854 207.403 387.265 245.339C405.209 256.646 405.306 279.575 387.846 292.029C386.491 293.019 385.234 295.364 385.234 297.136C385.089 339.761 385.089 382.335 385.234 424.961C385.234 426.836 386.249 429.129 387.507 430.484C397.906 441.271 398.341 457.842 388.378 468.524C378.946 478.634 363.372 478.373 354.133 468.003C344.605 457.269 345.331 440.802 355.633 430.328C356.794 429.129 357.858 426.993 357.858 425.325C358.003 387.963 357.954 350.6 357.954 313.237C357.954 312.716 357.858 312.247 357.664 310.893L357.519 310.788ZM54.7396 343.044C54.7396 345.858 54.7396 347.526 54.7396 349.141C54.7396 367.223 54.9331 385.305 54.6913 403.439C54.5462 415.112 58.9476 423.293 68.3792 429.025C92.1276 443.459 115.731 458.207 139.334 472.954C166.565 489.941 193.747 490.098 221.027 473.162C244.92 458.363 268.765 443.355 292.755 428.66C301.945 423.085 306.056 415.008 305.96 403.804C305.766 385.566 305.96 367.275 305.96 349.037C305.96 347.421 305.96 345.806 305.96 343.253C303.59 344.66 301.993 345.598 300.446 346.588C269.249 366.077 238.1 385.618 206.903 405.107C189.201 416.154 171.498 416.102 153.796 405.003C135.658 393.643 117.472 382.283 99.286 370.923C84.8241 361.856 70.3139 352.789 54.788 343.096L54.7396 343.044Z" fill="#EEF1F5"/>
<path d="M306.008 351.694C306.105 362.897 301.945 370.974 292.804 376.55C268.814 391.193 244.969 406.2 221.075 421.052C193.796 437.935 166.614 437.779 139.383 420.843C115.779 406.096 92.1762 391.349 68.4279 376.915C58.9479 371.183 54.5464 363.002 54.7399 351.329C54.7399 350.287 54.7399 349.192 54.7399 348.15L27.6542 333.143C27.6542 339.031 27.6542 344.919 27.6542 350.808C27.4607 373.892 36.4087 390.932 55.1268 402.344C78.7301 416.727 102.14 431.526 125.646 446.012C161.922 468.419 198.343 468.628 234.666 446.273C258.221 431.786 281.534 416.883 305.186 402.553C324.146 391.089 333.287 374.049 333.094 350.756C333.384 347.421 333.481 339.709 333.481 329.599L305.96 348.098C305.96 349.245 305.96 350.443 305.96 351.59L306.008 351.694Z" fill="#EEF1F5"/>
</g>
<g clip-path="url(#clip1_226_985)">
<path d="M234.527 189H125.473C101.463 189 82 208.463 82 232.473V341.527C82 365.537 101.463 385 125.473 385H234.527C258.537 385 278 365.537 278 341.527V232.473C278 208.463 258.537 189 234.527 189Z" fill="url(#paint0_linear_226_985)"/>
<path d="M227.863 284.818C225.72 286.059 223.695 287.196 221.722 288.424C221.408 288.62 221.264 289.274 221.264 289.718C221.238 295.781 221.199 301.844 221.264 307.907C221.317 313.748 218.847 318.02 213.725 320.895C207.335 324.475 201.037 328.226 194.674 331.858C184.848 337.451 175.022 337.398 165.222 331.793C158.871 328.147 152.547 324.436 146.17 320.843C141.114 317.981 138.696 313.708 138.748 307.92C138.801 301.935 138.748 295.964 138.788 289.979C138.788 289.012 138.526 288.477 137.664 287.98C133.169 285.432 128.713 282.819 124.258 280.206C119.227 277.252 119.201 271.281 124.231 268.354C140.486 258.894 156.741 249.447 173.009 240.012C177.609 237.347 182.3 237.282 186.899 239.947C203.246 249.407 219.579 258.894 235.899 268.406C240.747 271.242 240.773 276.991 236.056 280.114C235.69 280.362 235.35 280.95 235.35 281.395C235.311 292.083 235.311 302.759 235.35 313.447C235.35 313.918 235.625 314.492 235.964 314.832C238.774 317.537 238.891 321.692 236.2 324.371C233.652 326.906 229.444 326.84 226.948 324.24C224.374 321.548 224.57 317.419 227.354 314.793C227.667 314.492 227.955 313.957 227.955 313.539C227.994 304.17 227.981 294.801 227.981 285.432C227.981 285.302 227.955 285.184 227.902 284.844L227.863 284.818ZM146.066 292.906C146.066 293.612 146.066 294.03 146.066 294.435C146.066 298.969 146.118 303.503 146.053 308.051C146.014 310.978 147.203 313.029 149.751 314.466C156.166 318.086 162.543 321.784 168.919 325.482C176.276 329.741 183.619 329.78 190.989 325.534C197.444 321.823 203.886 318.06 210.367 314.375C212.85 312.977 213.96 310.951 213.934 308.142C213.882 303.569 213.934 298.982 213.934 294.409C213.934 294.004 213.934 293.599 213.934 292.959C213.294 293.311 212.863 293.547 212.444 293.795C204.016 298.682 195.602 303.582 187.174 308.469C182.391 311.239 177.609 311.226 172.826 308.443C167.926 305.594 163.013 302.746 158.1 299.897C154.193 297.623 150.273 295.35 146.079 292.919L146.066 292.906Z" fill="white"/>
<path d="M213.947 295.075C213.973 297.885 212.849 299.91 210.38 301.308C203.899 304.98 197.457 308.743 191.002 312.467C183.632 316.701 176.289 316.661 168.932 312.415C162.556 308.717 156.179 305.019 149.764 301.4C147.203 299.962 146.013 297.911 146.066 294.984C146.066 294.723 146.066 294.448 146.066 294.187L138.748 290.424C138.748 291.9 138.748 293.377 138.748 294.853C138.696 300.642 141.113 304.915 146.17 307.776C152.547 311.383 158.871 315.093 165.221 318.726C175.021 324.345 184.861 324.397 194.674 318.791C201.037 315.159 207.335 311.422 213.725 307.828C218.847 304.954 221.317 300.681 221.264 294.84C221.343 294.004 221.369 292.07 221.369 289.535L213.934 294.174C213.934 294.461 213.934 294.762 213.934 295.049L213.947 295.075Z" fill="white"/>
</g>
<path d="M71.7066 445C71.2666 445 70.9266 444.887 70.6866 444.66C70.46 444.42 70.3466 444.08 70.3466 443.64V432.26C70.3466 431.82 70.46 431.487 70.6866 431.26C70.9266 431.02 71.2666 430.9 71.7066 430.9H76.5066C77.4933 430.9 78.3333 431.047 79.0266 431.34C79.72 431.633 80.2466 432.053 80.6066 432.6C80.98 433.147 81.1666 433.8 81.1666 434.56C81.1666 435.413 80.92 436.133 80.4266 436.72C79.9333 437.307 79.26 437.7 78.4066 437.9V437.6C79.3933 437.747 80.16 438.12 80.7066 438.72C81.2533 439.32 81.5266 440.1 81.5266 441.06C81.5266 442.313 81.1 443.287 80.2466 443.98C79.4066 444.66 78.2333 445 76.7266 445H71.7066ZM72.8066 443.06H76.4066C77.3133 443.06 77.98 442.887 78.4066 442.54C78.8333 442.18 79.0466 441.647 79.0466 440.94C79.0466 440.22 78.8333 439.687 78.4066 439.34C77.98 438.993 77.3133 438.82 76.4066 438.82H72.8066V443.06ZM72.8066 436.88H76.0666C76.9466 436.88 77.6 436.713 78.0266 436.38C78.4666 436.033 78.6866 435.527 78.6866 434.86C78.6866 434.193 78.4666 433.693 78.0266 433.36C77.6 433.013 76.9466 432.84 76.0666 432.84H72.8066V436.88ZM88.6962 445.2C87.5895 445.2 86.6362 444.993 85.8362 444.58C85.0362 444.167 84.4162 443.58 83.9762 442.82C83.5495 442.06 83.3362 441.16 83.3362 440.12C83.3362 439.107 83.5428 438.22 83.9562 437.46C84.3828 436.7 84.9628 436.107 85.6962 435.68C86.4428 435.24 87.2895 435.02 88.2362 435.02C88.9295 435.02 89.5495 435.133 90.0962 435.36C90.6562 435.587 91.1295 435.913 91.5162 436.34C91.9162 436.767 92.2162 437.287 92.4162 437.9C92.6295 438.5 92.7362 439.18 92.7362 439.94C92.7362 440.18 92.6495 440.367 92.4762 440.5C92.3162 440.62 92.0828 440.68 91.7762 440.68H85.3562V439.24H90.9762L90.6562 439.54C90.6562 438.927 90.5628 438.413 90.3762 438C90.2028 437.587 89.9428 437.273 89.5962 437.06C89.2628 436.833 88.8428 436.72 88.3362 436.72C87.7762 436.72 87.2962 436.853 86.8962 437.12C86.5095 437.373 86.2095 437.74 85.9962 438.22C85.7962 438.687 85.6962 439.247 85.6962 439.9V440.04C85.6962 441.133 85.9495 441.953 86.4562 442.5C86.9762 443.033 87.7362 443.3 88.7362 443.3C89.0828 443.3 89.4695 443.26 89.8962 443.18C90.3362 443.087 90.7495 442.933 91.1362 442.72C91.4162 442.56 91.6628 442.493 91.8762 442.52C92.0895 442.533 92.2562 442.607 92.3762 442.74C92.5095 442.873 92.5895 443.04 92.6162 443.24C92.6428 443.427 92.6028 443.62 92.4962 443.82C92.4028 444.02 92.2362 444.193 91.9962 444.34C91.5295 444.633 90.9895 444.853 90.3762 445C89.7762 445.133 89.2162 445.2 88.6962 445.2ZM95.996 445.16C95.596 445.16 95.2893 445.053 95.076 444.84C94.8627 444.613 94.756 444.293 94.756 443.88V436.32C94.756 435.907 94.8627 435.593 95.076 435.38C95.2893 435.167 95.5893 435.06 95.976 435.06C96.3627 435.06 96.6627 435.167 96.876 435.38C97.0893 435.593 97.196 435.907 97.196 436.32V437.78L96.976 437.18C97.2427 436.513 97.656 435.987 98.216 435.6C98.776 435.213 99.4427 435.02 100.216 435.02C101.003 435.02 101.649 435.207 102.156 435.58C102.663 435.953 103.016 436.527 103.216 437.3H102.936C103.203 436.593 103.643 436.04 104.256 435.64C104.869 435.227 105.576 435.02 106.376 435.02C107.123 435.02 107.736 435.167 108.216 435.46C108.709 435.753 109.076 436.2 109.316 436.8C109.556 437.387 109.676 438.133 109.676 439.04V443.88C109.676 444.293 109.563 444.613 109.336 444.84C109.123 445.053 108.816 445.16 108.416 445.16C108.016 445.16 107.709 445.053 107.496 444.84C107.283 444.613 107.176 444.293 107.176 443.88V439.14C107.176 438.393 107.049 437.847 106.796 437.5C106.556 437.153 106.143 436.98 105.556 436.98C104.903 436.98 104.389 437.213 104.016 437.68C103.643 438.133 103.456 438.767 103.456 439.58V443.88C103.456 444.293 103.349 444.613 103.136 444.84C102.923 445.053 102.616 445.16 102.216 445.16C101.816 445.16 101.503 445.053 101.276 444.84C101.063 444.613 100.956 444.293 100.956 443.88V439.14C100.956 438.393 100.829 437.847 100.576 437.5C100.336 437.153 99.9293 436.98 99.356 436.98C98.7027 436.98 98.1893 437.213 97.816 437.68C97.4427 438.133 97.256 438.767 97.256 439.58V443.88C97.256 444.733 96.836 445.16 95.996 445.16ZM121.645 445.16C121.311 445.16 121.018 445.073 120.765 444.9C120.525 444.727 120.325 444.46 120.165 444.1L116.985 436.72C116.865 436.427 116.818 436.153 116.845 435.9C116.885 435.647 117.005 435.447 117.205 435.3C117.418 435.14 117.705 435.06 118.065 435.06C118.371 435.06 118.618 435.133 118.805 435.28C118.991 435.413 119.158 435.673 119.305 436.06L122.005 442.8H121.405L124.185 436.04C124.331 435.667 124.498 435.413 124.685 435.28C124.885 435.133 125.151 435.06 125.485 435.06C125.778 435.06 126.011 435.14 126.185 435.3C126.358 435.447 126.465 435.647 126.505 435.9C126.545 436.14 126.498 436.407 126.365 436.7L123.125 444.1C122.978 444.46 122.778 444.727 122.525 444.9C122.285 445.073 121.991 445.16 121.645 445.16ZM129.472 445.14C129.072 445.14 128.765 445.02 128.552 444.78C128.338 444.54 128.232 444.207 128.232 443.78V436.44C128.232 436 128.338 435.667 128.552 435.44C128.765 435.2 129.072 435.08 129.472 435.08C129.872 435.08 130.178 435.2 130.392 435.44C130.618 435.667 130.732 436 130.732 436.44V443.78C130.732 444.207 130.625 444.54 130.412 444.78C130.198 445.02 129.885 445.14 129.472 445.14ZM129.472 433.22C129.005 433.22 128.638 433.107 128.372 432.88C128.118 432.64 127.992 432.313 127.992 431.9C127.992 431.473 128.118 431.147 128.372 430.92C128.638 430.693 129.005 430.58 129.472 430.58C129.952 430.58 130.318 430.693 130.572 430.92C130.825 431.147 130.952 431.473 130.952 431.9C130.952 432.313 130.825 432.64 130.572 432.88C130.318 433.107 129.952 433.22 129.472 433.22ZM134.569 445.16C134.169 445.16 133.863 445.053 133.649 444.84C133.436 444.613 133.329 444.293 133.329 443.88V436.32C133.329 435.907 133.436 435.593 133.649 435.38C133.863 435.167 134.163 435.06 134.549 435.06C134.936 435.06 135.236 435.167 135.449 435.38C135.663 435.593 135.769 435.907 135.769 436.32V437.68L135.549 437.18C135.843 436.473 136.296 435.94 136.909 435.58C137.536 435.207 138.243 435.02 139.029 435.02C139.816 435.02 140.463 435.167 140.969 435.46C141.476 435.753 141.856 436.2 142.109 436.8C142.363 437.387 142.489 438.133 142.489 439.04V443.88C142.489 444.293 142.383 444.613 142.169 444.84C141.956 445.053 141.649 445.16 141.249 445.16C140.849 445.16 140.536 445.053 140.309 444.84C140.096 444.613 139.989 444.293 139.989 443.88V439.16C139.989 438.4 139.843 437.847 139.549 437.5C139.269 437.153 138.829 436.98 138.229 436.98C137.496 436.98 136.909 437.213 136.469 437.68C136.043 438.133 135.829 438.74 135.829 439.5V443.88C135.829 444.733 135.409 445.16 134.569 445.16ZM148.789 445.2C147.935 445.2 147.182 444.993 146.529 444.58C145.889 444.167 145.389 443.58 145.029 442.82C144.669 442.047 144.489 441.14 144.489 440.1C144.489 439.047 144.669 438.147 145.029 437.4C145.389 436.64 145.889 436.053 146.529 435.64C147.182 435.227 147.935 435.02 148.789 435.02C149.602 435.02 150.309 435.22 150.909 435.62C151.522 436.02 151.935 436.547 152.149 437.2H151.929V432C151.929 431.587 152.035 431.273 152.249 431.06C152.462 430.847 152.769 430.74 153.169 430.74C153.569 430.74 153.875 430.847 154.089 431.06C154.315 431.273 154.429 431.587 154.429 432V443.88C154.429 444.293 154.322 444.613 154.109 444.84C153.895 445.053 153.589 445.16 153.189 445.16C152.789 445.16 152.482 445.053 152.269 444.84C152.055 444.613 151.949 444.293 151.949 443.88V442.32L152.169 442.92C151.969 443.613 151.562 444.167 150.949 444.58C150.335 444.993 149.615 445.2 148.789 445.2ZM149.489 443.3C149.982 443.3 150.415 443.18 150.789 442.94C151.162 442.7 151.449 442.347 151.649 441.88C151.862 441.4 151.969 440.807 151.969 440.1C151.969 439.033 151.742 438.24 151.289 437.72C150.835 437.187 150.235 436.92 149.489 436.92C148.995 436.92 148.562 437.04 148.189 437.28C147.815 437.507 147.522 437.86 147.309 438.34C147.109 438.807 147.009 439.393 147.009 440.1C147.009 441.153 147.235 441.953 147.689 442.5C148.142 443.033 148.742 443.3 149.489 443.3ZM161.481 445.2C160.467 445.2 159.587 444.993 158.841 444.58C158.094 444.167 157.514 443.58 157.101 442.82C156.687 442.047 156.481 441.14 156.481 440.1C156.481 439.313 156.594 438.613 156.821 438C157.061 437.373 157.401 436.84 157.841 436.4C158.281 435.947 158.807 435.607 159.421 435.38C160.034 435.14 160.721 435.02 161.481 435.02C162.494 435.02 163.374 435.227 164.121 435.64C164.867 436.053 165.447 436.64 165.861 437.4C166.274 438.16 166.481 439.06 166.481 440.1C166.481 440.887 166.361 441.593 166.121 442.22C165.894 442.847 165.561 443.387 165.121 443.84C164.681 444.28 164.154 444.62 163.541 444.86C162.927 445.087 162.241 445.2 161.481 445.2ZM161.481 443.3C161.974 443.3 162.407 443.18 162.781 442.94C163.154 442.7 163.441 442.347 163.641 441.88C163.854 441.4 163.961 440.807 163.961 440.1C163.961 439.033 163.734 438.24 163.281 437.72C162.827 437.187 162.227 436.92 161.481 436.92C160.987 436.92 160.554 437.04 160.181 437.28C159.807 437.507 159.514 437.86 159.301 438.34C159.101 438.807 159.001 439.393 159.001 440.1C159.001 441.153 159.227 441.953 159.681 442.5C160.134 443.033 160.734 443.3 161.481 443.3ZM177.194 445.2C176.487 445.2 175.854 445.067 175.294 444.8C174.747 444.52 174.314 444.147 173.994 443.68C173.687 443.213 173.534 442.687 173.534 442.1C173.534 441.38 173.72 440.813 174.094 440.4C174.467 439.973 175.074 439.667 175.914 439.48C176.754 439.293 177.88 439.2 179.294 439.2H180.294V440.64H179.314C178.487 440.64 177.827 440.68 177.334 440.76C176.84 440.84 176.487 440.98 176.274 441.18C176.074 441.367 175.974 441.633 175.974 441.98C175.974 442.42 176.127 442.78 176.434 443.06C176.74 443.34 177.167 443.48 177.714 443.48C178.154 443.48 178.54 443.38 178.874 443.18C179.22 442.967 179.494 442.68 179.694 442.32C179.894 441.96 179.994 441.547 179.994 441.08V438.78C179.994 438.113 179.847 437.633 179.554 437.34C179.26 437.047 178.767 436.9 178.074 436.9C177.687 436.9 177.267 436.947 176.814 437.04C176.374 437.133 175.907 437.293 175.414 437.52C175.16 437.64 174.934 437.673 174.734 437.62C174.547 437.567 174.4 437.46 174.294 437.3C174.187 437.127 174.134 436.94 174.134 436.74C174.134 436.54 174.187 436.347 174.294 436.16C174.4 435.96 174.58 435.813 174.834 435.72C175.447 435.467 176.034 435.287 176.594 435.18C177.167 435.073 177.687 435.02 178.154 435.02C179.114 435.02 179.9 435.167 180.514 435.46C181.14 435.753 181.607 436.2 181.914 436.8C182.22 437.387 182.374 438.147 182.374 439.08V443.88C182.374 444.293 182.274 444.613 182.074 444.84C181.874 445.053 181.587 445.16 181.214 445.16C180.84 445.16 180.547 445.053 180.334 444.84C180.134 444.613 180.034 444.293 180.034 443.88V442.92H180.194C180.1 443.387 179.914 443.793 179.634 444.14C179.367 444.473 179.027 444.733 178.614 444.92C178.2 445.107 177.727 445.2 177.194 445.2ZM189.371 445.2C188.358 445.2 187.478 444.993 186.731 444.58C185.985 444.167 185.405 443.58 184.991 442.82C184.578 442.047 184.371 441.14 184.371 440.1C184.371 439.313 184.485 438.613 184.711 438C184.951 437.373 185.291 436.84 185.731 436.4C186.171 435.947 186.698 435.607 187.311 435.38C187.925 435.14 188.611 435.02 189.371 435.02C190.385 435.02 191.265 435.227 192.011 435.64C192.758 436.053 193.338 436.64 193.751 437.4C194.165 438.16 194.371 439.06 194.371 440.1C194.371 440.887 194.251 441.593 194.011 442.22C193.785 442.847 193.451 443.387 193.011 443.84C192.571 444.28 192.045 444.62 191.431 444.86C190.818 445.087 190.131 445.2 189.371 445.2ZM189.371 443.3C189.865 443.3 190.298 443.18 190.671 442.94C191.045 442.7 191.331 442.347 191.531 441.88C191.745 441.4 191.851 440.807 191.851 440.1C191.851 439.033 191.625 438.24 191.171 437.72C190.718 437.187 190.118 436.92 189.371 436.92C188.878 436.92 188.445 437.04 188.071 437.28C187.698 437.507 187.405 437.86 187.191 438.34C186.991 438.807 186.891 439.393 186.891 440.1C186.891 441.153 187.118 441.953 187.571 442.5C188.025 443.033 188.625 443.3 189.371 443.3ZM205.084 445.2C204.378 445.2 203.744 445.067 203.184 444.8C202.638 444.52 202.204 444.147 201.884 443.68C201.578 443.213 201.424 442.687 201.424 442.1C201.424 441.38 201.611 440.813 201.984 440.4C202.358 439.973 202.964 439.667 203.804 439.48C204.644 439.293 205.771 439.2 207.184 439.2H208.184V440.64H207.204C206.378 440.64 205.718 440.68 205.224 440.76C204.731 440.84 204.378 440.98 204.164 441.18C203.964 441.367 203.864 441.633 203.864 441.98C203.864 442.42 204.018 442.78 204.324 443.06C204.631 443.34 205.058 443.48 205.604 443.48C206.044 443.48 206.431 443.38 206.764 443.18C207.111 442.967 207.384 442.68 207.584 442.32C207.784 441.96 207.884 441.547 207.884 441.08V438.78C207.884 438.113 207.738 437.633 207.444 437.34C207.151 437.047 206.658 436.9 205.964 436.9C205.578 436.9 205.158 436.947 204.704 437.04C204.264 437.133 203.798 437.293 203.304 437.52C203.051 437.64 202.824 437.673 202.624 437.62C202.438 437.567 202.291 437.46 202.184 437.3C202.078 437.127 202.024 436.94 202.024 436.74C202.024 436.54 202.078 436.347 202.184 436.16C202.291 435.96 202.471 435.813 202.724 435.72C203.338 435.467 203.924 435.287 204.484 435.18C205.058 435.073 205.578 435.02 206.044 435.02C207.004 435.02 207.791 435.167 208.404 435.46C209.031 435.753 209.498 436.2 209.804 436.8C210.111 437.387 210.264 438.147 210.264 439.08V443.88C210.264 444.293 210.164 444.613 209.964 444.84C209.764 445.053 209.478 445.16 209.104 445.16C208.731 445.16 208.438 445.053 208.224 444.84C208.024 444.613 207.924 444.293 207.924 443.88V442.92H208.084C207.991 443.387 207.804 443.793 207.524 444.14C207.258 444.473 206.918 444.733 206.504 444.92C206.091 445.107 205.618 445.2 205.084 445.2ZM214.042 448.76C213.642 448.76 213.335 448.653 213.122 448.44C212.909 448.227 212.802 447.913 212.802 447.5V436.32C212.802 435.907 212.909 435.593 213.122 435.38C213.335 435.167 213.635 435.06 214.022 435.06C214.422 435.06 214.729 435.167 214.942 435.38C215.155 435.593 215.262 435.907 215.262 436.32V437.88L215.042 437.28C215.242 436.6 215.649 436.053 216.262 435.64C216.889 435.227 217.615 435.02 218.442 435.02C219.295 435.02 220.042 435.227 220.682 435.64C221.335 436.053 221.842 436.64 222.202 437.4C222.562 438.147 222.742 439.047 222.742 440.1C222.742 441.14 222.562 442.047 222.202 442.82C221.842 443.58 221.342 444.167 220.702 444.58C220.062 444.993 219.309 445.2 218.442 445.2C217.629 445.2 216.915 445 216.302 444.6C215.689 444.187 215.275 443.653 215.062 443H215.302V447.5C215.302 447.913 215.189 448.227 214.962 448.44C214.749 448.653 214.442 448.76 214.042 448.76ZM217.742 443.3C218.235 443.3 218.669 443.18 219.042 442.94C219.415 442.7 219.702 442.347 219.902 441.88C220.115 441.4 220.222 440.807 220.222 440.1C220.222 439.033 219.995 438.24 219.542 437.72C219.089 437.187 218.489 436.92 217.742 436.92C217.249 436.92 216.815 437.04 216.442 437.28C216.069 437.507 215.775 437.86 215.562 438.34C215.362 438.807 215.262 439.393 215.262 440.1C215.262 441.153 215.489 441.953 215.942 442.5C216.395 443.033 216.995 443.3 217.742 443.3ZM228.134 445.2C227.027 445.2 226.194 444.887 225.634 444.26C225.074 443.62 224.794 442.687 224.794 441.46V432C224.794 431.587 224.901 431.273 225.114 431.06C225.327 430.847 225.634 430.74 226.034 430.74C226.434 430.74 226.741 430.847 226.954 431.06C227.181 431.273 227.294 431.587 227.294 432V441.34C227.294 441.953 227.421 442.407 227.674 442.7C227.941 442.993 228.314 443.14 228.794 443.14C228.901 443.14 229.001 443.14 229.094 443.14C229.187 443.127 229.281 443.113 229.374 443.1C229.561 443.073 229.687 443.127 229.754 443.26C229.821 443.38 229.854 443.633 229.854 444.02C229.854 444.353 229.787 444.613 229.654 444.8C229.521 444.987 229.301 445.1 228.994 445.14C228.861 445.153 228.721 445.167 228.574 445.18C228.427 445.193 228.281 445.2 228.134 445.2ZM232.421 445.14C232.021 445.14 231.714 445.02 231.501 444.78C231.288 444.54 231.181 444.207 231.181 443.78V436.44C231.181 436 231.288 435.667 231.501 435.44C231.714 435.2 232.021 435.08 232.421 435.08C232.821 435.08 233.128 435.2 233.341 435.44C233.568 435.667 233.681 436 233.681 436.44V443.78C233.681 444.207 233.574 444.54 233.361 444.78C233.148 445.02 232.834 445.14 232.421 445.14ZM232.421 433.22C231.954 433.22 231.588 433.107 231.321 432.88C231.068 432.64 230.941 432.313 230.941 431.9C230.941 431.473 231.068 431.147 231.321 430.92C231.588 430.693 231.954 430.58 232.421 430.58C232.901 430.58 233.268 430.693 233.521 430.92C233.774 431.147 233.901 431.473 233.901 431.9C233.901 432.313 233.774 432.64 233.521 432.88C233.268 433.107 232.901 433.22 232.421 433.22ZM240.799 445.2C239.772 445.2 238.879 444.993 238.119 444.58C237.359 444.153 236.772 443.553 236.359 442.78C235.945 442.007 235.739 441.1 235.739 440.06C235.739 439.273 235.852 438.573 236.079 437.96C236.319 437.333 236.659 436.807 237.099 436.38C237.539 435.94 238.072 435.607 238.699 435.38C239.325 435.14 240.025 435.02 240.799 435.02C241.239 435.02 241.712 435.08 242.219 435.2C242.739 435.32 243.225 435.52 243.679 435.8C243.892 435.933 244.032 436.093 244.099 436.28C244.165 436.467 244.179 436.66 244.139 436.86C244.099 437.047 244.012 437.213 243.879 437.36C243.759 437.493 243.605 437.58 243.419 437.62C243.232 437.647 243.025 437.6 242.799 437.48C242.505 437.307 242.205 437.18 241.899 437.1C241.592 437.007 241.299 436.96 241.019 436.96C240.579 436.96 240.192 437.033 239.859 437.18C239.525 437.313 239.239 437.513 238.999 437.78C238.772 438.033 238.599 438.353 238.479 438.74C238.359 439.127 238.299 439.573 238.299 440.08C238.299 441.067 238.532 441.847 238.999 442.42C239.479 442.98 240.152 443.26 241.019 443.26C241.299 443.26 241.585 443.22 241.879 443.14C242.185 443.06 242.492 442.933 242.799 442.76C243.025 442.64 243.225 442.6 243.399 442.64C243.585 442.68 243.739 442.773 243.859 442.92C243.979 443.053 244.052 443.22 244.079 443.42C244.105 443.607 244.079 443.793 243.999 443.98C243.932 444.167 243.799 444.32 243.599 444.44C243.159 444.707 242.692 444.9 242.199 445.02C241.705 445.14 241.239 445.2 240.799 445.2ZM248.874 445.2C248.167 445.2 247.534 445.067 246.974 444.8C246.427 444.52 245.994 444.147 245.674 443.68C245.367 443.213 245.214 442.687 245.214 442.1C245.214 441.38 245.4 440.813 245.774 440.4C246.147 439.973 246.754 439.667 247.594 439.48C248.434 439.293 249.56 439.2 250.974 439.2H251.974V440.64H250.994C250.167 440.64 249.507 440.68 249.014 440.76C248.52 440.84 248.167 440.98 247.954 441.18C247.754 441.367 247.654 441.633 247.654 441.98C247.654 442.42 247.807 442.78 248.114 443.06C248.42 443.34 248.847 443.48 249.394 443.48C249.834 443.48 250.22 443.38 250.554 443.18C250.9 442.967 251.174 442.68 251.374 442.32C251.574 441.96 251.674 441.547 251.674 441.08V438.78C251.674 438.113 251.527 437.633 251.234 437.34C250.94 437.047 250.447 436.9 249.754 436.9C249.367 436.9 248.947 436.947 248.494 437.04C248.054 437.133 247.587 437.293 247.094 437.52C246.84 437.64 246.614 437.673 246.414 437.62C246.227 437.567 246.08 437.46 245.974 437.3C245.867 437.127 245.814 436.94 245.814 436.74C245.814 436.54 245.867 436.347 245.974 436.16C246.08 435.96 246.26 435.813 246.514 435.72C247.127 435.467 247.714 435.287 248.274 435.18C248.847 435.073 249.367 435.02 249.834 435.02C250.794 435.02 251.58 435.167 252.194 435.46C252.82 435.753 253.287 436.2 253.594 436.8C253.9 437.387 254.054 438.147 254.054 439.08V443.88C254.054 444.293 253.954 444.613 253.754 444.84C253.554 445.053 253.267 445.16 252.894 445.16C252.52 445.16 252.227 445.053 252.014 444.84C251.814 444.613 251.714 444.293 251.714 443.88V442.92H251.874C251.78 443.387 251.594 443.793 251.314 444.14C251.047 444.473 250.707 444.733 250.294 444.92C249.88 445.107 249.407 445.2 248.874 445.2ZM261.071 445.2C260.204 445.2 259.478 445.053 258.891 444.76C258.318 444.467 257.891 444.04 257.611 443.48C257.331 442.907 257.191 442.2 257.191 441.36V437.1H256.151C255.831 437.1 255.584 437.02 255.411 436.86C255.238 436.687 255.151 436.453 255.151 436.16C255.151 435.853 255.238 435.62 255.411 435.46C255.584 435.3 255.831 435.22 256.151 435.22H257.191V433.4C257.191 432.987 257.298 432.673 257.511 432.46C257.738 432.247 258.051 432.14 258.451 432.14C258.851 432.14 259.158 432.247 259.371 432.46C259.584 432.673 259.691 432.987 259.691 433.4V435.22H261.811C262.131 435.22 262.378 435.3 262.551 435.46C262.724 435.62 262.811 435.853 262.811 436.16C262.811 436.453 262.724 436.687 262.551 436.86C262.378 437.02 262.131 437.1 261.811 437.1H259.691V441.22C259.691 441.86 259.831 442.34 260.111 442.66C260.391 442.98 260.844 443.14 261.471 443.14C261.698 443.14 261.898 443.12 262.071 443.08C262.244 443.04 262.398 443.013 262.531 443C262.691 442.987 262.824 443.04 262.931 443.16C263.038 443.267 263.091 443.493 263.091 443.84C263.091 444.107 263.044 444.347 262.951 444.56C262.871 444.76 262.718 444.9 262.491 444.98C262.318 445.033 262.091 445.08 261.811 445.12C261.531 445.173 261.284 445.2 261.071 445.2ZM265.761 445.14C265.361 445.14 265.054 445.02 264.841 444.78C264.627 444.54 264.521 444.207 264.521 443.78V436.44C264.521 436 264.627 435.667 264.841 435.44C265.054 435.2 265.361 435.08 265.761 435.08C266.161 435.08 266.467 435.2 266.681 435.44C266.907 435.667 267.021 436 267.021 436.44V443.78C267.021 444.207 266.914 444.54 266.701 444.78C266.487 445.02 266.174 445.14 265.761 445.14ZM265.761 433.22C265.294 433.22 264.927 433.107 264.661 432.88C264.407 432.64 264.281 432.313 264.281 431.9C264.281 431.473 264.407 431.147 264.661 430.92C264.927 430.693 265.294 430.58 265.761 430.58C266.241 430.58 266.607 430.693 266.861 430.92C267.114 431.147 267.241 431.473 267.241 431.9C267.241 432.313 267.114 432.64 266.861 432.88C266.607 433.107 266.241 433.22 265.761 433.22ZM273.578 445.16C273.245 445.16 272.952 445.073 272.698 444.9C272.458 444.727 272.258 444.46 272.098 444.1L268.918 436.72C268.798 436.427 268.752 436.153 268.778 435.9C268.818 435.647 268.938 435.447 269.138 435.3C269.352 435.14 269.638 435.06 269.998 435.06C270.305 435.06 270.552 435.133 270.738 435.28C270.925 435.413 271.092 435.673 271.238 436.06L273.938 442.8H273.338L276.118 436.04C276.265 435.667 276.432 435.413 276.618 435.28C276.818 435.133 277.085 435.06 277.418 435.06C277.712 435.06 277.945 435.14 278.118 435.3C278.292 435.447 278.398 435.647 278.438 435.9C278.478 436.14 278.432 436.407 278.298 436.7L275.058 444.1C274.912 444.46 274.712 444.727 274.458 444.9C274.218 445.073 273.925 445.16 273.578 445.16ZM284.43 445.2C283.417 445.2 282.537 444.993 281.79 444.58C281.043 444.167 280.463 443.58 280.05 442.82C279.637 442.047 279.43 441.14 279.43 440.1C279.43 439.313 279.543 438.613 279.77 438C280.01 437.373 280.35 436.84 280.79 436.4C281.23 435.947 281.757 435.607 282.37 435.38C282.983 435.14 283.67 435.02 284.43 435.02C285.443 435.02 286.323 435.227 287.07 435.64C287.817 436.053 288.397 436.64 288.81 437.4C289.223 438.16 289.43 439.06 289.43 440.1C289.43 440.887 289.31 441.593 289.07 442.22C288.843 442.847 288.51 443.387 288.07 443.84C287.63 444.28 287.103 444.62 286.49 444.86C285.877 445.087 285.19 445.2 284.43 445.2ZM284.43 443.3C284.923 443.3 285.357 443.18 285.73 442.94C286.103 442.7 286.39 442.347 286.59 441.88C286.803 441.4 286.91 440.807 286.91 440.1C286.91 439.033 286.683 438.24 286.23 437.72C285.777 437.187 285.177 436.92 284.43 436.92C283.937 436.92 283.503 437.04 283.13 437.28C282.757 437.507 282.463 437.86 282.25 438.34C282.05 438.807 281.95 439.393 281.95 440.1C281.95 441.153 282.177 441.953 282.63 442.5C283.083 443.033 283.683 443.3 284.43 443.3ZM101.689 469.18C101.182 469.18 100.796 469.04 100.529 468.76C100.262 468.48 100.129 468.087 100.129 467.58V456.48C100.129 455.96 100.262 455.567 100.529 455.3C100.809 455.033 101.202 454.9 101.709 454.9H106.569C108.142 454.9 109.356 455.3 110.209 456.1C111.062 456.887 111.489 457.987 111.489 459.4C111.489 460.813 111.062 461.92 110.209 462.72C109.356 463.52 108.142 463.92 106.569 463.92H103.229V467.58C103.229 468.087 103.096 468.48 102.829 468.76C102.576 469.04 102.196 469.18 101.689 469.18ZM103.229 461.52H106.049C106.849 461.52 107.456 461.34 107.869 460.98C108.296 460.62 108.509 460.093 108.509 459.4C108.509 458.707 108.296 458.187 107.869 457.84C107.456 457.493 106.849 457.32 106.049 457.32H103.229V461.52ZM116.021 469.22C115.301 469.22 114.654 469.08 114.081 468.8C113.508 468.52 113.061 468.14 112.741 467.66C112.421 467.18 112.261 466.64 112.261 466.04C112.261 465.32 112.448 464.753 112.821 464.34C113.194 463.913 113.801 463.613 114.641 463.44C115.481 463.253 116.594 463.16 117.981 463.16H119.041V464.72H118.001C117.321 464.72 116.768 464.76 116.341 464.84C115.928 464.907 115.628 465.027 115.441 465.2C115.268 465.373 115.181 465.613 115.181 465.92C115.181 466.293 115.308 466.6 115.561 466.84C115.828 467.08 116.208 467.2 116.701 467.2C117.088 467.2 117.428 467.113 117.721 466.94C118.028 466.753 118.268 466.507 118.441 466.2C118.614 465.88 118.701 465.52 118.701 465.12V462.82C118.701 462.233 118.568 461.82 118.301 461.58C118.034 461.327 117.581 461.2 116.941 461.2C116.581 461.2 116.188 461.247 115.761 461.34C115.348 461.42 114.888 461.56 114.381 461.76C114.088 461.893 113.828 461.927 113.601 461.86C113.374 461.78 113.201 461.647 113.081 461.46C112.961 461.26 112.901 461.047 112.901 460.82C112.901 460.58 112.968 460.353 113.101 460.14C113.234 459.913 113.454 459.747 113.761 459.64C114.388 459.387 114.974 459.213 115.521 459.12C116.081 459.027 116.594 458.98 117.061 458.98C118.088 458.98 118.928 459.133 119.581 459.44C120.248 459.733 120.748 460.193 121.081 460.82C121.414 461.433 121.581 462.227 121.581 463.2V467.64C121.581 468.133 121.461 468.513 121.221 468.78C120.981 469.047 120.634 469.18 120.181 469.18C119.728 469.18 119.374 469.047 119.121 468.78C118.881 468.513 118.761 468.133 118.761 467.64V466.9L118.901 467.02C118.821 467.473 118.648 467.867 118.381 468.2C118.128 468.52 117.801 468.773 117.401 468.96C117.001 469.133 116.541 469.22 116.021 469.22ZM125.354 469.16C124.86 469.16 124.48 469.02 124.214 468.74C123.96 468.447 123.834 468.04 123.834 467.52V460.68C123.834 460.147 123.96 459.74 124.214 459.46C124.48 459.167 124.86 459.02 125.354 459.02C125.834 459.02 126.2 459.167 126.454 459.46C126.72 459.74 126.854 460.147 126.854 460.68V467.52C126.854 468.04 126.727 468.447 126.474 468.74C126.22 469.02 125.847 469.16 125.354 469.16ZM125.354 457.38C124.794 457.38 124.36 457.253 124.054 457C123.76 456.733 123.614 456.36 123.614 455.88C123.614 455.387 123.76 455.013 124.054 454.76C124.36 454.493 124.794 454.36 125.354 454.36C125.914 454.36 126.34 454.493 126.634 454.76C126.927 455.013 127.074 455.387 127.074 455.88C127.074 456.36 126.927 456.733 126.634 457C126.34 457.253 125.914 457.38 125.354 457.38ZM130.705 469.18C130.212 469.18 129.832 469.047 129.565 468.78C129.312 468.513 129.185 468.133 129.185 467.64V460.54C129.185 460.047 129.312 459.673 129.565 459.42C129.832 459.153 130.199 459.02 130.665 459.02C131.145 459.02 131.512 459.153 131.765 459.42C132.019 459.673 132.145 460.047 132.145 460.54V461.68L131.925 461.02C132.232 460.367 132.685 459.867 133.285 459.52C133.899 459.16 134.592 458.98 135.365 458.98C136.152 458.98 136.799 459.133 137.305 459.44C137.812 459.733 138.192 460.187 138.445 460.8C138.699 461.4 138.825 462.167 138.825 463.1V467.64C138.825 468.133 138.692 468.513 138.425 468.78C138.172 469.047 137.799 469.18 137.305 469.18C136.825 469.18 136.452 469.047 136.185 468.78C135.932 468.513 135.805 468.133 135.805 467.64V463.24C135.805 462.56 135.679 462.073 135.425 461.78C135.185 461.473 134.812 461.32 134.305 461.32C133.665 461.32 133.152 461.52 132.765 461.92C132.392 462.32 132.205 462.853 132.205 463.52V467.64C132.205 468.667 131.705 469.18 130.705 469.18ZM146.18 469.22C145.02 469.22 144.02 469.013 143.18 468.6C142.353 468.173 141.713 467.58 141.26 466.82C140.82 466.047 140.6 465.14 140.6 464.1C140.6 463.087 140.813 462.2 141.24 461.44C141.667 460.667 142.26 460.067 143.02 459.64C143.793 459.2 144.667 458.98 145.64 458.98C146.347 458.98 146.987 459.1 147.56 459.34C148.133 459.567 148.627 459.9 149.04 460.34C149.453 460.767 149.767 461.293 149.98 461.92C150.193 462.533 150.3 463.22 150.3 463.98C150.3 464.233 150.22 464.427 150.06 464.56C149.9 464.68 149.667 464.74 149.36 464.74H143.08V463.18H148.12L147.8 463.46C147.8 462.913 147.72 462.46 147.56 462.1C147.4 461.727 147.167 461.447 146.86 461.26C146.567 461.073 146.2 460.98 145.76 460.98C145.267 460.98 144.847 461.093 144.5 461.32C144.153 461.547 143.887 461.873 143.7 462.3C143.513 462.727 143.42 463.24 143.42 463.84V464C143.42 465.013 143.653 465.76 144.12 466.24C144.6 466.72 145.307 466.96 146.24 466.96C146.56 466.96 146.927 466.92 147.34 466.84C147.753 466.76 148.14 466.633 148.5 466.46C148.807 466.313 149.08 466.267 149.32 466.32C149.56 466.36 149.747 466.467 149.88 466.64C150.013 466.813 150.087 467.013 150.1 467.24C150.127 467.467 150.08 467.693 149.96 467.92C149.84 468.133 149.64 468.313 149.36 468.46C148.907 468.713 148.393 468.9 147.82 469.02C147.26 469.153 146.713 469.22 146.18 469.22ZM155.596 469.22C154.41 469.22 153.523 468.893 152.936 468.24C152.35 467.573 152.056 466.587 152.056 465.28V456.26C152.056 455.753 152.183 455.373 152.436 455.12C152.703 454.853 153.083 454.72 153.576 454.72C154.056 454.72 154.423 454.853 154.676 455.12C154.943 455.373 155.076 455.753 155.076 456.26V465.16C155.076 465.707 155.19 466.113 155.416 466.38C155.656 466.633 155.97 466.76 156.356 466.76C156.463 466.76 156.563 466.753 156.656 466.74C156.75 466.727 156.85 466.72 156.956 466.72C157.17 466.693 157.316 466.76 157.396 466.92C157.49 467.067 157.536 467.367 157.536 467.82C157.536 468.22 157.456 468.527 157.296 468.74C157.136 468.94 156.89 469.073 156.556 469.14C156.423 469.153 156.27 469.167 156.096 469.18C155.923 469.207 155.756 469.22 155.596 469.22ZM168.123 469.22C167.269 469.22 166.516 469.013 165.863 468.6C165.223 468.187 164.723 467.593 164.363 466.82C164.003 466.047 163.823 465.133 163.823 464.08C163.823 463.027 164.003 462.12 164.363 461.36C164.723 460.6 165.223 460.013 165.863 459.6C166.516 459.187 167.269 458.98 168.123 458.98C168.896 458.98 169.576 459.167 170.163 459.54C170.763 459.913 171.169 460.4 171.383 461H171.163V456.26C171.163 455.753 171.289 455.373 171.543 455.12C171.796 454.853 172.169 454.72 172.663 454.72C173.143 454.72 173.516 454.853 173.783 455.12C174.049 455.373 174.183 455.753 174.183 456.26V467.64C174.183 468.133 174.049 468.513 173.783 468.78C173.529 469.047 173.163 469.18 172.683 469.18C172.203 469.18 171.829 469.047 171.563 468.78C171.309 468.513 171.183 468.133 171.183 467.64V466.28L171.403 467.06C171.216 467.713 170.816 468.24 170.203 468.64C169.603 469.027 168.909 469.22 168.123 469.22ZM169.023 466.96C169.463 466.96 169.843 466.853 170.163 466.64C170.483 466.427 170.736 466.113 170.923 465.7C171.109 465.273 171.203 464.733 171.203 464.08C171.203 463.107 171.003 462.393 170.603 461.94C170.203 461.473 169.676 461.24 169.023 461.24C168.596 461.24 168.216 461.34 167.883 461.54C167.563 461.74 167.309 462.053 167.123 462.48C166.949 462.893 166.863 463.427 166.863 464.08C166.863 465.053 167.063 465.78 167.463 466.26C167.863 466.727 168.383 466.96 169.023 466.96ZM181.23 469.22C180.176 469.22 179.256 469.013 178.47 468.6C177.696 468.187 177.096 467.593 176.67 466.82C176.243 466.047 176.03 465.133 176.03 464.08C176.03 463.293 176.15 462.587 176.39 461.96C176.63 461.333 176.976 460.8 177.43 460.36C177.896 459.907 178.45 459.567 179.09 459.34C179.73 459.1 180.443 458.98 181.23 458.98C182.283 458.98 183.196 459.187 183.97 459.6C184.756 460.013 185.363 460.6 185.79 461.36C186.23 462.12 186.45 463.027 186.45 464.08C186.45 464.88 186.323 465.593 186.07 466.22C185.83 466.847 185.483 467.387 185.03 467.84C184.576 468.293 184.023 468.64 183.37 468.88C182.73 469.107 182.016 469.22 181.23 469.22ZM181.23 466.96C181.67 466.96 182.05 466.853 182.37 466.64C182.69 466.427 182.943 466.113 183.13 465.7C183.316 465.273 183.41 464.733 183.41 464.08C183.41 463.107 183.21 462.393 182.81 461.94C182.41 461.473 181.883 461.24 181.23 461.24C180.803 461.24 180.423 461.34 180.09 461.54C179.77 461.74 179.516 462.053 179.33 462.48C179.156 462.893 179.07 463.427 179.07 464.08C179.07 465.053 179.27 465.78 179.67 466.26C180.07 466.727 180.59 466.96 181.23 466.96ZM194.533 469.18C194.16 469.18 193.853 469.093 193.613 468.92C193.386 468.747 193.24 468.513 193.173 468.22C193.12 467.927 193.18 467.6 193.353 467.24L198.473 456.02C198.686 455.567 198.94 455.24 199.233 455.04C199.526 454.827 199.866 454.72 200.253 454.72C200.64 454.72 200.98 454.827 201.273 455.04C201.566 455.24 201.813 455.567 202.013 456.02L207.173 467.24C207.346 467.6 207.406 467.933 207.353 468.24C207.313 468.533 207.18 468.767 206.953 468.94C206.726 469.1 206.433 469.18 206.073 469.18C205.62 469.18 205.266 469.073 205.013 468.86C204.773 468.647 204.56 468.313 204.373 467.86L203.173 465.08L204.413 465.94H196.073L197.313 465.08L196.133 467.86C195.933 468.327 195.72 468.667 195.493 468.88C195.28 469.08 194.96 469.18 194.533 469.18ZM200.213 458.2L197.653 464.3L197.113 463.52H203.373L202.833 464.3L200.253 458.2H200.213ZM212.471 469.22C211.285 469.22 210.398 468.893 209.811 468.24C209.225 467.573 208.931 466.587 208.931 465.28V456.26C208.931 455.753 209.058 455.373 209.311 455.12C209.578 454.853 209.958 454.72 210.451 454.72C210.931 454.72 211.298 454.853 211.551 455.12C211.818 455.373 211.951 455.753 211.951 456.26V465.16C211.951 465.707 212.065 466.113 212.291 466.38C212.531 466.633 212.845 466.76 213.231 466.76C213.338 466.76 213.438 466.753 213.531 466.74C213.625 466.727 213.725 466.72 213.831 466.72C214.045 466.693 214.191 466.76 214.271 466.92C214.365 467.067 214.411 467.367 214.411 467.82C214.411 468.22 214.331 468.527 214.171 468.74C214.011 468.94 213.765 469.073 213.431 469.14C213.298 469.153 213.145 469.167 212.971 469.18C212.798 469.207 212.631 469.22 212.471 469.22ZM219.212 469.22C218.385 469.22 217.698 469.067 217.152 468.76C216.605 468.453 216.198 467.993 215.932 467.38C215.678 466.753 215.552 465.98 215.552 465.06V460.54C215.552 460.033 215.678 459.653 215.932 459.4C216.198 459.147 216.572 459.02 217.052 459.02C217.532 459.02 217.905 459.147 218.172 459.4C218.438 459.653 218.572 460.033 218.572 460.54V465.14C218.572 465.727 218.692 466.167 218.932 466.46C219.172 466.74 219.552 466.88 220.072 466.88C220.645 466.88 221.112 466.68 221.472 466.28C221.845 465.867 222.032 465.327 222.032 464.66V460.54C222.032 460.033 222.158 459.653 222.412 459.4C222.678 459.147 223.052 459.02 223.532 459.02C224.025 459.02 224.398 459.147 224.652 459.4C224.918 459.653 225.052 460.033 225.052 460.54V467.64C225.052 468.667 224.565 469.18 223.592 469.18C223.112 469.18 222.745 469.047 222.492 468.78C222.238 468.513 222.112 468.133 222.112 467.64V466.3L222.412 467.08C222.118 467.76 221.698 468.287 221.152 468.66C220.605 469.033 219.958 469.22 219.212 469.22ZM228.909 469.18C228.415 469.18 228.035 469.047 227.769 468.78C227.515 468.513 227.389 468.133 227.389 467.64V460.54C227.389 460.047 227.515 459.673 227.769 459.42C228.035 459.153 228.402 459.02 228.869 459.02C229.349 459.02 229.715 459.153 229.969 459.42C230.222 459.673 230.349 460.047 230.349 460.54V461.68L230.129 461.02C230.435 460.367 230.889 459.867 231.489 459.52C232.102 459.16 232.795 458.98 233.569 458.98C234.355 458.98 235.002 459.133 235.509 459.44C236.015 459.733 236.395 460.187 236.649 460.8C236.902 461.4 237.029 462.167 237.029 463.1V467.64C237.029 468.133 236.895 468.513 236.629 468.78C236.375 469.047 236.002 469.18 235.509 469.18C235.029 469.18 234.655 469.047 234.389 468.78C234.135 468.513 234.009 468.133 234.009 467.64V463.24C234.009 462.56 233.882 462.073 233.629 461.78C233.389 461.473 233.015 461.32 232.509 461.32C231.869 461.32 231.355 461.52 230.969 461.92C230.595 462.32 230.409 462.853 230.409 463.52V467.64C230.409 468.667 229.909 469.18 228.909 469.18ZM244.003 469.22C242.95 469.22 242.03 469.013 241.243 468.6C240.47 468.187 239.87 467.593 239.443 466.82C239.016 466.047 238.803 465.133 238.803 464.08C238.803 463.293 238.923 462.587 239.163 461.96C239.403 461.333 239.75 460.8 240.203 460.36C240.67 459.907 241.223 459.567 241.863 459.34C242.503 459.1 243.216 458.98 244.003 458.98C245.056 458.98 245.97 459.187 246.743 459.6C247.53 460.013 248.136 460.6 248.563 461.36C249.003 462.12 249.223 463.027 249.223 464.08C249.223 464.88 249.096 465.593 248.843 466.22C248.603 466.847 248.256 467.387 247.803 467.84C247.35 468.293 246.796 468.64 246.143 468.88C245.503 469.107 244.79 469.22 244.003 469.22ZM244.003 466.96C244.443 466.96 244.823 466.853 245.143 466.64C245.463 466.427 245.716 466.113 245.903 465.7C246.09 465.273 246.183 464.733 246.183 464.08C246.183 463.107 245.983 462.393 245.583 461.94C245.183 461.473 244.656 461.24 244.003 461.24C243.576 461.24 243.196 461.34 242.863 461.54C242.543 461.74 242.29 462.053 242.103 462.48C241.93 462.893 241.843 463.427 241.843 464.08C241.843 465.053 242.043 465.78 242.443 466.26C242.843 466.727 243.363 466.96 244.003 466.96ZM257.83 464.94C257.577 464.94 257.377 464.86 257.23 464.7C257.097 464.54 257.017 464.313 256.99 464.02L256.39 456.38C256.35 455.887 256.457 455.493 256.71 455.2C256.963 454.893 257.337 454.74 257.83 454.74C258.31 454.74 258.67 454.893 258.91 455.2C259.163 455.493 259.27 455.887 259.23 456.38L258.63 464.02C258.617 464.313 258.537 464.54 258.39 464.7C258.257 464.86 258.07 464.94 257.83 464.94ZM257.83 469.1C257.377 469.1 257.01 468.96 256.73 468.68C256.463 468.4 256.33 468.04 256.33 467.6C256.33 467.173 256.463 466.827 256.73 466.56C257.01 466.28 257.377 466.14 257.83 466.14C258.297 466.14 258.657 466.28 258.91 466.56C259.177 466.827 259.31 467.173 259.31 467.6C259.31 468.04 259.177 468.4 258.91 468.68C258.657 468.96 258.297 469.1 257.83 469.1Z" fill="#405261"/>
</g>
<defs>
<linearGradient id="paint0_linear_226_985" x1="94.74" y1="372.26" x2="265.26" y2="201.74" gradientUnits="userSpaceOnUse">
<stop stop-color="#007CA0"/>
<stop offset="1" stop-color="#003F6B"/>
</linearGradient>
<clipPath id="clip0_226_985">
<rect width="360" height="640" fill="white"/>
</clipPath>
<clipPath id="clip1_226_985">
<rect width="196" height="196" fill="white" transform="translate(82 189)"/>
</clipPath>
</defs>
</svg>
