<svg width="16" height="14" viewBox="0 0 16 14" fill="none" xmlns="http://www.w3.org/2000/svg">
<rect width="16" height="14" rx="1.71429" fill="#FEE4E4"/>
<path d="M8.5 8H6.5C6.36739 8 6.24021 8.05268 6.14645 8.14645C6.05268 8.24021 6 8.36739 6 8.5C6 8.63261 6.05268 8.75978 6.14645 8.85355C6.24021 8.94732 6.36739 9 6.5 9H8.5C8.63261 9 8.75979 8.94732 8.85355 8.85355C8.94732 8.75978 9 8.63261 9 8.5C9 8.36739 8.94732 8.24021 8.85355 8.14645C8.75979 8.05268 8.63261 8 8.5 8ZM10.5 3H9.91C9.80684 2.70823 9.61596 2.4555 9.36353 2.27647C9.1111 2.09744 8.80947 2.00087 8.5 2H7.5C7.19053 2.00087 6.8889 2.09744 6.63647 2.27647C6.38404 2.4555 6.19316 2.70823 6.09 3H5.5C5.10218 3 4.72064 3.15804 4.43934 3.43934C4.15804 3.72064 4 4.10217 4 4.5V10.5C4 10.8978 4.15804 11.2794 4.43934 11.5607C4.72064 11.842 5.10218 12 5.5 12H10.5C10.8978 12 11.2794 11.842 11.5607 11.5607C11.842 11.2794 12 10.8978 12 10.5V4.5C12 4.10217 11.842 3.72064 11.5607 3.43934C11.2794 3.15804 10.8978 3 10.5 3ZM7 3.5C7 3.36739 7.05268 3.24021 7.14645 3.14645C7.24021 3.05268 7.36739 3 7.5 3H8.5C8.63261 3 8.75979 3.05268 8.85355 3.14645C8.94732 3.24021 9 3.36739 9 3.5V4H7V3.5ZM11 10.5C11 10.6326 10.9473 10.7598 10.8536 10.8536C10.7598 10.9473 10.6326 11 10.5 11H5.5C5.36739 11 5.24021 10.9473 5.14645 10.8536C5.05268 10.7598 5 10.6326 5 10.5V4.5C5 4.36739 5.05268 4.24021 5.14645 4.14645C5.24021 4.05268 5.36739 4 5.5 4H6V4.5C6 4.63261 6.05268 4.75978 6.14645 4.85355C6.24021 4.94732 6.36739 5 6.5 5H9.5C9.63261 5 9.75979 4.94732 9.85355 4.85355C9.94732 4.75978 10 4.63261 10 4.5V4H10.5C10.6326 4 10.7598 4.05268 10.8536 4.14645C10.9473 4.24021 11 4.36739 11 4.5V10.5ZM9.5 6H6.5C6.36739 6 6.24021 6.05268 6.14645 6.14645C6.05268 6.24021 6 6.36739 6 6.5C6 6.63261 6.05268 6.75978 6.14645 6.85355C6.24021 6.94732 6.36739 7 6.5 7H9.5C9.63261 7 9.75979 6.94732 9.85355 6.85355C9.94732 6.75978 10 6.63261 10 6.5C10 6.36739 9.94732 6.24021 9.85355 6.14645C9.75979 6.05268 9.63261 6 9.5 6Z" fill="url(#paint0_linear_37_1441)"/>
<defs>
<linearGradient id="paint0_linear_37_1441" x1="8" y1="2" x2="8" y2="12" gradientUnits="userSpaceOnUse">
<stop stop-color="#ED6B4F"/>
<stop offset="1" stop-color="#EC4293"/>
</linearGradient>
</defs>
</svg>
