<svg width="40" height="40" viewBox="0 0 40 40" fill="none" xmlns="http://www.w3.org/2000/svg">
<g clip-path="url(#clip0_37_2390)">
<path d="M31.128 0H8.872C3.97213 0 0 3.97213 0 8.872V31.128C0 36.0279 3.97213 40 8.872 40H31.128C36.0279 40 40 36.0279 40 31.128V8.872C40 3.97213 36.0279 0 31.128 0Z" fill="url(#paint0_linear_37_2390)"/>
<path d="M29.768 19.5546C29.3307 19.808 28.9173 20.04 28.5147 20.2906C28.4507 20.3306 28.4213 20.464 28.4213 20.5546C28.416 21.792 28.408 23.0293 28.4213 24.2666C28.432 25.4586 27.928 26.3306 26.8827 26.9173C25.5787 27.648 24.2933 28.4133 22.9947 29.1546C20.9893 30.296 18.984 30.2853 16.984 29.1413C15.688 28.3973 14.3973 27.64 13.096 26.9066C12.064 26.3226 11.5707 25.4506 11.5813 24.2693C11.592 23.048 11.5813 21.8293 11.5893 20.608C11.5893 20.4106 11.536 20.3013 11.36 20.2C10.4427 19.68 9.53332 19.1466 8.62399 18.6133C7.59732 18.0106 7.59199 16.792 8.61866 16.1946C11.936 14.264 15.2533 12.336 18.5733 10.4106C19.512 9.86664 20.4693 9.85331 21.408 10.3973C24.744 12.328 28.0773 14.264 31.408 16.2053C32.3973 16.784 32.4027 17.9573 31.44 18.5946C31.3653 18.6453 31.296 18.7653 31.296 18.856C31.288 21.0373 31.288 23.216 31.296 25.3973C31.296 25.4933 31.352 25.6106 31.4213 25.68C31.9947 26.232 32.0187 27.08 31.4693 27.6266C30.9493 28.144 30.0907 28.1306 29.5813 27.6C29.056 27.0506 29.096 26.208 29.664 25.672C29.728 25.6106 29.7867 25.5013 29.7867 25.416C29.7947 23.504 29.792 21.592 29.792 19.68C29.792 19.6533 29.7867 19.6293 29.776 19.56L29.768 19.5546ZM13.0747 21.2053C13.0747 21.3493 13.0747 21.4346 13.0747 21.5173C13.0747 22.4426 13.0853 23.368 13.072 24.296C13.064 24.8933 13.3067 25.312 13.8267 25.6053C15.136 26.344 16.4373 27.0986 17.7387 27.8533C19.24 28.7226 20.7387 28.7306 22.2427 27.864C23.56 27.1066 24.8747 26.3386 26.1973 25.5866C26.704 25.3013 26.9307 24.888 26.9253 24.3146C26.9147 23.3813 26.9253 22.4453 26.9253 21.512C26.9253 21.4293 26.9253 21.3466 26.9253 21.216C26.7947 21.288 26.7067 21.336 26.6213 21.3866C24.9013 22.384 23.184 23.384 21.464 24.3813C20.488 24.9466 19.512 24.944 18.536 24.376C17.536 23.7946 16.5333 23.2133 15.5307 22.632C14.7333 22.168 13.9333 21.704 13.0773 21.208L13.0747 21.2053Z" fill="white"/>
<path d="M26.928 21.648C26.9333 22.2213 26.704 22.6347 26.2 22.92C24.8773 23.6693 23.5626 24.4373 22.2453 25.1973C20.7413 26.0613 19.2426 26.0533 17.7413 25.1867C16.44 24.432 15.1386 23.6773 13.8293 22.9387C13.3066 22.6453 13.064 22.2267 13.0746 21.6293C13.0746 21.576 13.0746 21.52 13.0746 21.4667L11.5813 20.6987C11.5813 21 11.5813 21.3013 11.5813 21.6027C11.5706 22.784 12.064 23.656 13.096 24.24C14.3973 24.976 15.688 25.7333 16.984 26.4747C18.984 27.6213 20.992 27.632 22.9946 26.488C24.2933 25.7467 25.5786 24.984 26.8826 24.2507C27.928 23.664 28.432 22.792 28.4213 21.6C28.4373 21.4293 28.4426 21.0347 28.4426 20.5173L26.9253 21.464C26.9253 21.5227 26.9253 21.584 26.9253 21.6427L26.928 21.648Z" fill="white"/>
</g>
<defs>
<linearGradient id="paint0_linear_37_2390" x1="2.6" y1="37.4" x2="37.4" y2="2.6" gradientUnits="userSpaceOnUse">
<stop stop-color="#007CA0"/>
<stop offset="1" stop-color="#003F6B"/>
</linearGradient>
<clipPath id="clip0_37_2390">
<rect width="40" height="40" fill="white"/>
</clipPath>
</defs>
</svg>
